<?xml version="1.0" encoding="utf-8"?>
<!-- Generator: Adobe Illustrator 24.1.2, SVG Export Plug-In . SVG Version: 6.00 Build 0)  -->
<svg version="1.1" xmlns="http://www.w3.org/2000/svg" xmlns:xlink="http://www.w3.org/1999/xlink" x="0px" y="0px"
	 viewBox="0 0 1080 1080" style="enable-background:new 0 0 1080 1080;" xml:space="preserve">
<style type="text/css">
	.st0{fill:url(#SVGID_1_);}
	.st1{stroke:#000000;stroke-width:5;stroke-linecap:round;stroke-linejoin:round;stroke-miterlimit:10;}
	.st2{fill:#707070;}
	.st3{fill:#707070;stroke:#000000;stroke-width:5;stroke-linecap:round;stroke-linejoin:round;stroke-miterlimit:10;}
	.st4{fill:none;stroke:#000000;stroke-width:5;stroke-linecap:round;stroke-linejoin:round;stroke-miterlimit:10;}
	.st5{fill:url(#SVGID_2_);}
	.st6{fill:url(#SVGID_3_);}
	.st7{fill:url(#SVGID_4_);}
	.st8{fill:url(#SVGID_5_);}
	.st9{fill:#3E3E3E;stroke:#000000;stroke-width:5;stroke-miterlimit:10;}
	.st10{fill:#707070;stroke:#000000;stroke-width:5;stroke-miterlimit:10;}
	.st11{fill:none;}
	.st12{fill:#0A0909;}
	.st13{fill:#6E6E6E;}
	.st14{fill:none;stroke:#FFFFFF;stroke-width:5;stroke-linecap:round;stroke-linejoin:round;stroke-miterlimit:10;}
	.st15{fill:#3E3E3E;}
	.st16{fill:#3E3E3E;stroke:#020202;stroke-width:5;stroke-linecap:round;stroke-linejoin:round;stroke-miterlimit:10;}
	.st17{fill:#2A2A2A;stroke:#050505;stroke-width:5;stroke-linecap:round;stroke-linejoin:round;stroke-miterlimit:10;}
	.st18{fill:#1C1C1C;stroke:#000000;stroke-width:5;stroke-linecap:round;stroke-linejoin:round;stroke-miterlimit:10;}
	.st19{fill:#2A2A2A;stroke:#020202;stroke-width:5;stroke-linecap:round;stroke-linejoin:round;stroke-miterlimit:10;}
	.st20{fill:#D3A3BD;stroke:#188917;stroke-width:5;stroke-linecap:round;stroke-linejoin:round;stroke-miterlimit:10;}
	.st21{fill:#CB0202;stroke:#020202;stroke-width:5;stroke-linecap:round;stroke-linejoin:round;stroke-miterlimit:10;}
	.st22{fill:#707070;stroke:#000000;stroke-width:5;stroke-linecap:round;stroke-miterlimit:10;}
	.st23{fill:none;stroke:#707070;stroke-width:5;stroke-linecap:round;stroke-miterlimit:10;}
	.st24{fill:#6A0113;}
	.st25{fill:#CB0202;}
	.st26{fill:#2A2A2A;}
	.st27{fill:#707070;stroke:#180017;stroke-width:5;stroke-linecap:round;stroke-linejoin:round;stroke-miterlimit:10;}
	.st28{fill:none;stroke:#180017;stroke-width:5;stroke-linecap:round;stroke-linejoin:round;stroke-miterlimit:10;}
	.st29{fill:#1C1C1C;stroke:#180017;stroke-width:5;stroke-linecap:round;stroke-linejoin:round;stroke-miterlimit:10;}
	.st30{fill:#AE021E;stroke:#180017;stroke-width:5;stroke-linecap:round;stroke-linejoin:round;stroke-miterlimit:10;}
	.st31{fill:#B6B6B6;}
	.st32{fill:#180017;}
	.st33{fill:#3E3E3E;stroke:#000000;stroke-width:5;stroke-linecap:round;stroke-linejoin:round;stroke-miterlimit:10;}
	.st34{fill:#707070;stroke:#050505;stroke-width:5;stroke-linecap:round;stroke-linejoin:round;stroke-miterlimit:10;}
	.st35{fill:#B6B6B6;stroke:#000000;stroke-width:5;stroke-linecap:round;stroke-linejoin:round;stroke-miterlimit:10;}
	.st36{fill:#FFFFFF;stroke:#000000;stroke-width:5;stroke-linecap:round;stroke-linejoin:round;stroke-miterlimit:10;}
	.st37{fill:#181617;stroke:#000000;stroke-width:5;stroke-linecap:round;stroke-linejoin:round;stroke-miterlimit:10;}
	.st38{fill:none;stroke:#FFFFFF;stroke-width:4.6396;stroke-linecap:round;stroke-linejoin:round;stroke-miterlimit:10;}
	.st39{stroke:#000000;stroke-width:4.4811;stroke-linecap:round;stroke-linejoin:round;stroke-miterlimit:10;}
	.st40{stroke:#000000;stroke-width:4.2964;stroke-linecap:round;stroke-linejoin:round;stroke-miterlimit:10;}
	.st41{display:none;}
	.st42{display:inline;fill:none;stroke:#000000;stroke-width:5;stroke-linecap:round;stroke-linejoin:round;stroke-miterlimit:10;}
	.st43{fill:#1C1C1C;}
	.st44{fill:#6A0113;stroke:#000000;stroke-width:5;stroke-linecap:round;stroke-linejoin:round;stroke-miterlimit:10;}
	.st45{fill:#6E6E6E;stroke:#000000;stroke-width:5;stroke-linecap:round;stroke-linejoin:round;stroke-miterlimit:10;}
	.st46{fill:#6F6F6F;stroke:#000000;stroke-width:5;stroke-linecap:round;stroke-linejoin:round;stroke-miterlimit:10;}
	.st47{fill:#AE021E;stroke:#000000;stroke-width:5;stroke-linecap:round;stroke-linejoin:round;stroke-miterlimit:10;}
	.st48{fill:none;stroke:#FFFFFF;stroke-width:4.6842;stroke-linecap:round;stroke-linejoin:round;stroke-miterlimit:10;}
	.st49{fill:#52020F;stroke:#000000;stroke-width:5;stroke-linecap:round;stroke-linejoin:round;stroke-miterlimit:10;}
	.st50{fill:#CB0202;stroke:#000000;stroke-width:5;stroke-linecap:round;stroke-linejoin:round;stroke-miterlimit:10;}
	.st51{fill:#CB0302;stroke:#000000;stroke-width:5;stroke-linecap:round;stroke-linejoin:round;stroke-miterlimit:10;}
	.st52{fill:#FFFFFF;}
	.st53{fill:#AE021E;stroke:#000000;stroke-width:4.4601;stroke-linecap:round;stroke-linejoin:round;stroke-miterlimit:10;}
	.st54{fill:#AE021E;stroke:#FFFFFF;stroke-width:4.4601;stroke-linecap:round;stroke-linejoin:round;stroke-miterlimit:10;}
	.st55{fill:#AE021E;stroke:#FFFFFF;stroke-width:5;stroke-linecap:round;stroke-linejoin:round;stroke-miterlimit:10;}
	.st56{fill:none;stroke:#1C1C1C;stroke-width:2;stroke-linecap:round;stroke-linejoin:round;stroke-miterlimit:10;}
	.st57{fill:#717171;}
	.st58{fill:#191718;}
	.st59{fill:none;stroke:#000000;stroke-width:10;stroke-linecap:round;stroke-linejoin:round;stroke-miterlimit:10;}
	.st60{fill:none;stroke:#000000;stroke-width:8;stroke-linecap:round;stroke-linejoin:round;stroke-miterlimit:10;}
	.st61{fill:#FF0000;stroke:#000000;stroke-width:5;stroke-linecap:round;stroke-linejoin:round;stroke-miterlimit:10;}
	.st62{fill:#1D1D1D;}
	.st63{fill:none;stroke:#FFFFFF;stroke-width:4.4425;stroke-linecap:round;stroke-linejoin:round;stroke-miterlimit:10;}
	.st64{fill:#6B0014;}
	.st65{fill:none;stroke:#FFFFFF;stroke-width:4.6071;stroke-linecap:round;stroke-linejoin:round;stroke-miterlimit:10;}
	.st66{fill:#AF001F;}
	.st67{fill:none;stroke:#FF0000;stroke-width:5;stroke-linecap:round;stroke-linejoin:round;stroke-miterlimit:10;}
	.st68{fill:#020202;stroke:#000000;stroke-width:5;stroke-linecap:round;stroke-linejoin:round;stroke-miterlimit:10;}
	.st69{fill:#AE011E;}
</style>
<g id="демон">
</g>
<g id="ученый">
	<g>
		<g>
			<g>
				<polygon class="st24" points="0,0 342.9,0 342.9,688.8 0,1080 				"/>
				<rect x="342.9" y="0" class="st25" width="737.1" height="688.8"/>
				<polygon class="st2" points="0,1080 342.9,688.8 1080,688.8 1080,1080 				"/>
				<polygon class="st15" points="0,133 226.6,104.2 226.6,384.9 0,516.2 				"/>
				<polygon class="st26" points="0,86.1 256.8,68 256.8,403.5 0,561 0,516.2 226.6,384.9 226.6,104.2 0,133 				"/>
				<polygon class="st27" points="9.2,177.7 142,156.6 142,196.9 9.2,228.1 				"/>
				<polygon class="st27" points="57.4,269.4 142,246.2 142,279.9 57.4,310.2 				"/>
				<line class="st28" x1="60.9" y1="340.4" x2="142" y2="310.2"/>
				<polygon class="st29" points="21.1,399.3 21.1,435.5 153.1,370.6 153.1,337.8 				"/>
				<ellipse class="st30" cx="184.2" cy="167.7" rx="17.7" ry="20.6"/>
				<path class="st14" d="M176.4,175.8c-1.7-2.1-2.7-5-2.7-8.1c0-6.7,4.7-12.1,10.4-12.1"/>
				<ellipse class="st30" cx="184.2" cy="252.3" rx="17.7" ry="20.6"/>
				<ellipse class="st27" cx="24.7" cy="298.8" rx="17.7" ry="20.6"/>
				<ellipse class="st30" cx="184.2" cy="340.4" rx="17.7" ry="20.6"/>
				<polygon class="st27" points="32.6,409.2 51.4,443.7 68.5,422.6 				"/>
				<polygon class="st27" points="82.5,386.7 101.3,421.3 118.4,400.1 				"/>
				<polygon class="st30" points="58.3,397.6 69.5,359.8 42.4,362.7 				"/>
				<polygon class="st27" points="107.1,373.5 125.9,408.1 143,386.9 				"/>
				<polygon class="st30" points="131.4,362.4 150.2,397 167.3,375.8 				"/>
				<g>
					<rect x="578.5" y="116.3" class="st2" width="501.5" height="363.3"/>
					<rect x="598.9" y="138" class="st31" width="481.1" height="317.5"/>
				</g>
				<g>
					<polygon class="st28" points="686.5,256.9 711.2,256.9 712.5,292.4 746.4,376 646,376 686,291.9 					"/>
					<polygon class="st28" points="864.7,263.9 889.4,263.9 890.7,299.4 924.7,382.9 824.2,382.9 864.2,298.8 					"/>
					<g>
						<path class="st32" d="M1025.1,382.6c4.2-0.3,8.1-1.4,11.8-3.3c3.4-1.8,0.4-6.9-3-5.2c-2.8,1.4-5.7,2.2-8.8,2.4
							C1021.3,376.9,1021.3,382.9,1025.1,382.6L1025.1,382.6z"/>
					</g>
					<g>
						<g>
							<path class="st32" d="M916.8,225.1c42.1-12,84.6-22.7,127.4-32.1c3.8-0.8,2.2-6.6-1.6-5.8c-42.8,9.4-85.3,20.1-127.4,32.1
								C911.5,220.4,913.1,226.1,916.8,225.1L916.8,225.1z"/>
						</g>
						<g>
							<path class="st32" d="M951.6,187.4c8.6-7.7,17-15.4,24-24.6c-1.7-1-3.5-2-5.2-3c-5,9.8-7.6,20.2-7.8,31.2
								c-0.1,3.9,5.9,3.9,6,0c0.2-9.9,2.5-19.3,7-28.2c1.8-3.5-2.9-6-5.2-3c-6.7,8.7-14.9,16.1-23.1,23.4
								C944.4,185.7,948.7,189.9,951.6,187.4L951.6,187.4z"/>
						</g>
						<g>
							<path class="st32" d="M918.9,306.5c11.6-23.6,21.7-48,34.1-71.2c-1.7,0-3.5,0-5.2,0c12.8,17.4-4.5,35.2-8.4,52.5
								c1.7-0.4,3.3-0.9,5-1.3c-4.7-4.5-9.3-9-14-13.5c-0.4,1.7-0.9,3.3-1.3,5c11.2-3.6,23-1.9,34.5-2.4c3.8-0.2,3.9-6.2,0-6
								c-12.1,0.5-24.4-1.2-36.1,2.7c-2.1,0.7-3,3.4-1.3,5c4.7,4.5,9.3,9,14,13.5c1.5,1.5,4.5,0.9,5-1.3
								c4.3-19.3,22.1-37.7,7.8-57.2c-1.3-1.7-4-2.2-5.2,0c-12.5,23.2-22.6,47.6-34.1,71.2C912,306.9,917.2,309.9,918.9,306.5
								L918.9,306.5z"/>
						</g>
						<g>
							<path class="st32" d="M968.8,287.6c-2.2-4.8-7.2-6.6-11.8-3.8c-4.1,2.6-6.6,7.9-5.3,12.7c1.7,6,9.5,6.5,14.3,4.1
								c5.4-2.7,7.2-8.9,3.8-14c-2.1-3.2-7.3-0.2-5.2,3c1.5,2.3,1.1,4.5-1.6,5.7c-1.1,0.5-2.5,0.7-3.7,0.6c-0.4-0.1-0.7-0.2-1.1-0.3
								c-0.2,0-1.1-0.6-0.7-0.2c0.4,0.4-0.1-0.1-0.1-0.3c-0.1-0.3-0.2-0.6-0.2-0.9c-0.2-1.8,1-3.9,2.4-5c1.9-1.5,2.9-0.7,3.9,1.4
								C965.2,294.2,970.3,291.1,968.8,287.6L968.8,287.6z"/>
						</g>
						<g>
							<path class="st32" d="M972.4,267c6.9-3.1,13.4-7.1,20.6-9.6c3.6-1.3,2.1-7.1-1.6-5.8c-7.7,2.7-14.6,6.9-22,10.2
								C965.8,263.4,968.9,268.6,972.4,267L972.4,267z"/>
						</g>
						<g>
							<path class="st32" d="M999,287.3c3.5-10.3,6.9-20.6,10.7-30.8c2-5.4,4.1-13.2,8.5-17.3c1-1,1.1-1.1,1.8-0.6
								c1.9,1.2,3.1,4.4,4,6.3c4.9,10.7,7.4,22.7,10.2,34.1c0.7-1.2,1.4-2.5,2.1-3.7c-3.6,0.7-16.4,2.9-16.5-3.8
								c-0.1-6.9,11.6-11,16.5-12.5c3.7-1.2,2.1-6.9-1.6-5.8c-8.1,2.6-22.1,8.8-20.8,19.6c1.3,11,16.3,9.8,24,8.3
								c1.6-0.3,2.5-2.2,2.1-3.7c-3-12.5-5.7-26.2-11.8-37.7c-2.3-4.4-6.6-9.5-12-6.5c-5.6,3-8.2,11.5-10.4,16.9
								c-4.7,11.7-8.5,23.7-12.6,35.6C992,289.4,997.8,291,999,287.3L999,287.3z"/>
						</g>
						<g>
							<path class="st32" d="M1043.9,267.6c2.8-3.4,11.5-11.6,14.7-4.1c3.1,7-5.2,12.2-10.7,13.7c-3.1,0.9-2.7,6.3,0.8,5.9
								c2.5-0.3,9.2-1.3,10.4,2.1c0.9,2.6-2.1,6-3.7,7.7c-5.8,6-14.7,8.3-19.4,0c-1.9-3.3-7.1-0.3-5.2,3c7,12.2,21.5,9.7,29.8,0.2
								c3-3.4,5.8-8.5,4.1-13.1c-2.3-6.3-10.4-6.4-15.9-5.8c0.3,2,0.5,3.9,0.8,5.9c9.3-2.7,19.6-11.9,14.3-22.5
								c-5.7-11.4-18.4-4.1-24.2,2.8C1037.2,266.3,1041.4,270.6,1043.9,267.6L1043.9,267.6z"/>
						</g>
						<g>
							<path class="st32" d="M975.6,302.5c-10.1,1.3-19,5.6-25.1,13.9c-6.3,8.4-9,19.1-10.6,29.2c-3.7,22.8-1.1,47.4-8.4,69.5
								c-0.9,2.6-2.2,4.8-0.4,7.3c1.3,1.9,3.5,2.8,5.7,2.9c6.4,0.4,12.2-4,18.5-3.7c3.9,0.2,3.9-5.8,0-6c-4.8-0.2-9.4,2-14,3.1
								c-0.9,0.2-5,0.8-5,0.7c-0.4-0.9,1.8-5.2,2.1-6.3c2.5-9.3,3.4-19,4.1-28.5c1.5-19.5,0.6-41.9,9.8-59.8
								c4.8-9.3,12.9-15.2,23.4-16.6C979.4,308,979.4,302,975.6,302.5L975.6,302.5z"/>
						</g>
						<g>
							<path class="st32" d="M968.8,347.5c-0.7-4.5-2.8-10.7-8.4-10.6c-4.6,0.1-8.1,4.2-10.6,7.6c-2.8,3.8-5.1,8.3-6.1,12.9
								c-0.9,4-1,9.5,3.7,11.1c2.5,0.9,5.2,0.1,7.5-0.9c4.3-1.8,8-4.6,11.6-7.4c1.3-1,1-3.2,0-4.2c-1.2-1.3-3-1-4.2,0
								c-2.7,2.1-5.6,4.1-8.6,5.7c-0.3,0.1-0.6,0.3-0.8,0.4c-0.7,0.3,0.2-0.1-0.3,0.1c-0.5,0.2-1,0.4-1.5,0.5
								c-0.2,0.1-0.4,0.1-0.6,0.2c-0.6,0.2,0.1,0,0,0c-0.4,0-0.7,0-1.1,0c-0.4,0,0.8,0.2,0.2,0c-0.1,0-0.3-0.1-0.4-0.1
								c1,0.6-0.3-0.6,0.4,0.2c-0.6-0.6,0,0.2-0.1-0.1c-0.4-0.7,0,0.6-0.1-0.2c0-0.4-0.2-1.2-0.1-0.2c0-0.4-0.1-0.8-0.1-1.2
								c0-0.3,0-0.7,0.1-1c0-0.7-0.1,0.6,0,0.1c0-0.2,0.1-0.5,0.1-0.7c0.2-0.9,0.4-1.8,0.7-2.7c0.1-0.4,0.3-0.9,0.5-1.3
								c0.1-0.2,0.2-0.4,0.2-0.6c0.3-0.8-0.1,0.3,0.1-0.4c0.9-1.9,1.8-3.8,3-5.5c0.3-0.4,0.5-0.8,0.8-1.2c0.1-0.2,0.3-0.4,0.4-0.6
								c0.4-0.6-0.1,0.1,0.2-0.2c0.6-0.7,1.2-1.4,1.9-2.1c0.3-0.3,0.6-0.6,0.9-0.9c0.1-0.1,0.3-0.3,0.5-0.4c-0.5,0.4-0.3,0.2,0.1,0
								c0.3-0.2,0.6-0.4,0.9-0.6c0.1-0.1,0.3-0.1,0.5-0.2c0,0-0.7,0.2-0.1,0c0.2,0,0.4-0.1,0.5-0.1c0.5-0.2-0.1,0-0.2,0
								c0.1,0,0.4-0.1,0.5,0c0.4,0.2-0.5-0.4-0.2,0c0.1,0.1,0.4,0.1,0.5,0.2c-0.4-0.2-0.6-0.3-0.2,0c0.6,0.3-0.4-0.4-0.1-0.1
								c0.1,0.1,0.3,0.3,0.4,0.4c0.5,0.5-0.2-0.3,0,0c0.1,0.2,0.2,0.4,0.4,0.6c0.1,0.2,0.2,0.4,0.3,0.7c0.2,0.3-0.1-0.5,0.1,0.2
								c0.4,1.4,0.8,2.8,1,4.3c0.2,1.6,2.3,2.5,3.7,2.1C968.5,350.7,969.1,349.1,968.8,347.5L968.8,347.5z"/>
						</g>
						<g>
							<path class="st32" d="M998.2,310c-15.7,27.2-31.1,54.6-44.5,83.1c-1.6,3.5,3.5,6.5,5.2,3c13.4-28.5,28.7-55.9,44.5-83.1
								C1005.3,309.6,1000.1,306.6,998.2,310L998.2,310z"/>
						</g>
						<g>
							<path class="st32" d="M986.9,353.6c8.1-3.5,4.9,4.2,0.4,6.7c-2.9,1.6-1,6.6,2.3,5.5c3.6-1.2,11.2-2.3,9.8,3.9
								c-1.3,6-8.2,6.2-12.9,4.7c-3.7-1.2-5.3,4.6-1.6,5.8c8.4,2.7,19-0.2,20.4-10.1c1.5-10.6-9.5-12.6-17.4-10.1
								c0.8,1.8,1.5,3.7,2.3,5.5c4.7-2.6,9.3-8.1,7.5-13.8c-2-6.4-9.2-5.2-14-3.2C980.3,350,983.4,355.1,986.9,353.6L986.9,353.6z"
								/>
						</g>
						<g>
							<path class="st32" d="M1004.3,356c17.8-3.8,35.4-8.4,52.8-13.9c3.7-1.2,2.1-7-1.6-5.8c-17.4,5.5-35,10.1-52.8,13.9
								C999,351,1000.6,356.8,1004.3,356L1004.3,356z"/>
						</g>
						<g>
							<path class="st32" d="M1028.7,331c5.7-4.1,9.4-10.2,15.1-14.2c-1.5-1.1-2.9-2.3-4.4-3.4c-2.1,7.4-3.4,14.9-4,22.6
								c-0.3,3.9,5.7,3.8,6,0c0.5-7.1,1.8-14.1,3.8-21c0.7-2.4-2.2-4.9-4.4-3.4c-5.8,4-9.4,10.1-15.1,14.2
								C1022.6,328,1025.5,333.2,1028.7,331L1028.7,331z"/>
						</g>
						<g>
							<path class="st32" d="M1024.6,360c-8.9,1-16.2,7.5-21.3,14.5c-4.5,6.2-9,15.6-5.1,23.1c3.6,7,13.5,2.2,18.3-1.1
								c6.7-4.7,12.3-11.5,15.6-19c3-6.8,4.1-15.4-3-19.9c-3.3-2.1-6.3,3.1-3,5.2c5.4,3.4,1,12-1.4,16c-3.7,6.1-9.2,12.5-16,15.3
								c-1.3,0.5-2.6,0.6-3.9,1.1c-0.8,0.3-2-0.4-0.8,0.6c-0.5-0.4-0.9-1.8-1-2.4c-0.9-3.8,0.9-8,2.7-11.3c3.7-6.7,10.8-15.1,19-16
								C1028.4,365.6,1028.5,359.6,1024.6,360L1024.6,360z"/>
						</g>
						<g>
							<path class="st32" d="M1034.3,408c8.5-17.1,14.8-35.1,20.6-53.2c-2-0.3-3.9-0.5-5.9-0.8c0.6,13.6,0.3,27.1-0.7,40.6
								c1.5-0.9,3-1.7,4.5-2.6c-2.4-1.5-4.9-2.9-7.3-4.4c-0.2,1.8-0.5,3.7-0.7,5.5c12-3.2,24-6.4,35.9-9.5c3.7-1,2.1-6.8-1.6-5.8
								c-12,3.2-24,6.4-35.9,9.5c-2.5,0.7-2.9,4.2-0.7,5.5c2.4,1.5,4.9,2.9,7.3,4.4c2.1,1.2,4.3-0.4,4.5-2.6
								c1-13.5,1.3-27.1,0.7-40.6c-0.1-3.4-4.8-4.1-5.9-0.8c-5.7,17.6-11.7,35.2-20,51.8C1027.4,408.4,1032.5,411.4,1034.3,408
								L1034.3,408z"/>
						</g>
						<g>
							<path class="st32" d="M1047.3,414c3-1.7,6.8-2.9,10.3-2.4c4.9,0.6,0.7,4.1-1.4,6.2c-2.4,2.3,0.2,5.4,2.9,5
								c2.7-0.4,9.3-1.5,10.9,1.8c1.1,2.3-1.1,5.6-2.3,7.3c-4,5.3-11.9,9.8-17.2,3.8c-2.6-2.9-6.8,1.4-4.2,4.2
								c8.4,9.4,21.7,2.9,27.4-6.1c2.4-3.8,3.9-8.9,1.2-13c-3.7-5.5-11.7-4.8-17.3-4c1,1.7,1.9,3.3,2.9,5c3.9-3.8,9.1-10.9,2.5-15
								c-5.4-3.4-13.5-1-18.6,1.8C1040.9,410.7,1043.9,415.9,1047.3,414L1047.3,414z"/>
						</g>
					</g>
					<line class="st28" x1="667.8" y1="330.2" x2="727.8" y2="330.2"/>
					<line class="st28" x1="846" y1="337.1" x2="906" y2="337.1"/>
					<circle class="st28" cx="681.2" cy="357.1" r="7.2"/>
					<ellipse class="st28" cx="718" cy="358.9" rx="9.8" ry="9.1"/>
					<g>
						<path class="st32" d="M700.5,343c0.3-35.5,1.1-70.6,6.6-105.8c3.8-24.1,12.2-58.9,41.2-63.1c9.7-1.4,22.6,1,28,10.1
							c5.7,9.6-1.3,23.7-10.9,27.8c-10,4.2-17.3-3.7-15.6-13.6c2.3-14.2,14.3-26.5,26.6-33c13.6-7.2,29.1-7.9,43.2-1.4
							c12.5,5.8,24.1,17.4,26.3,31.5c2,13-4.2,25-16,30.7c-9.8,4.7-26.8,5.8-34.7-3.1c-7.3-8.3-1.5-20.9,7.2-25.6
							c7.4-4,17.6-5.3,25.9-3.8c16.1,3,26.4,16.9,32.9,30.9c8.1,17.5,11.9,37.1,14,56.2c2,18,2.5,36.3,0.9,54.4
							c-0.3,3.3-0.6,6.6-1.1,9.9c-0.6,3.8,5.2,5.4,5.8,1.6c3-20.2,2.7-41.1,0.9-61.4c-2.1-22.8-6.3-46.4-16.8-66.9
							c-8.5-16.6-22.6-30.9-42.3-31.2c-10.6-0.2-23.4,2.8-30.5,11.2c-7,8.4-8.6,21.5-0.3,29.7c9.5,9.4,26.8,9.3,38.5,4.6
							c12.5-5,21.3-16.2,22.1-29.8c2.1-33.5-37.9-56.3-67.4-47.2c-15.6,4.8-29.4,15.6-36.8,30.3c-4.9,9.7-7.8,24.6,3.5,31.2
							c10.1,5.9,22-0.7,27.8-9.5c6.7-10.2,7.2-23.4-2.5-31.8c-9.3-8.1-23.6-9.6-35.1-6.1c-14.5,4.4-25,17.1-30.9,30.6
							c-6.5,14.7-8.8,30.6-11,46.4c-2.9,20.9-4.3,41.8-4.8,62.8c-0.3,11.3-0.3,22.5-0.4,33.8C694.5,346.9,700.5,346.9,700.5,343
							L700.5,343z"/>
					</g>
				</g>
				<polygon class="st28" points="1080,116.3 1080,138 598.9,138 598.9,455.5 1080,455.5 1080,479.6 578.5,479.6 578.5,116.3 				
					"/>
				<polyline class="st28" points="0,86.1 256.8,68 256.8,403.5 0,561 				"/>
				<polyline class="st28" points="0,133 226.6,104.2 226.6,384.9 0,516.2 				"/>
				<path class="st14" d="M176.4,260.2c-1.7-2.1-2.7-5-2.7-8.1c0-6.7,4.7-12.1,10.4-12.1"/>
				<path class="st14" d="M176.4,347.9c-1.7-2.1-2.7-5-2.7-8.1c0-6.7,4.7-12.1,10.4-12.1"/>
				<path class="st14" d="M17.2,306.4c-1.7-2.1-2.7-5-2.7-8.1c0-6.7,4.7-12.1,10.4-12.1"/>
			</g>
			<line class="st14" x1="837.8" y1="125.6" x2="856.8" y2="125.6"/>
			<line class="st14" x1="793.9" y1="125.6" x2="824.9" y2="125.6"/>
			<polyline class="st14" points="587.9,228.9 587.9,125.6 782.1,125.6 			"/>
			<line class="st14" x1="933" y1="467.4" x2="1067.8" y2="467.4"/>
			<line class="st14" x1="881.3" y1="467.4" x2="919.6" y2="467.4"/>
			<line class="st14" x1="847.3" y1="467.4" x2="868.4" y2="467.4"/>
			<line class="st14" x1="19.7" y1="186.9" x2="133.3" y2="167.7"/>
			<line class="st14" x1="67.1" y1="277" x2="133.3" y2="258.1"/>
			<polyline class="st14" points="241.5,212.7 241.5,213.3 241.5,240 			"/>
			<polyline class="st14" points="0,108.4 241.5,85.7 241.5,186.9 			"/>
			<line class="st14" x1="0" y1="540" x2="126.9" y2="463.7"/>
		</g>
		<g>
			<g>
				<polygon class="st33" points="434.6,756.1 434.6,841.4 377.7,945.6 374.9,829.3 				"/>
				<polygon class="st34" points="398.6,753.5 434.6,756.1 374.9,829.3 320.8,823 				"/>
				<polygon class="st33" points="403.1,775.7 390,775.7 379.2,765.4 377.7,757 				"/>
				<path class="st35" d="M358.2,718.2c0,0-23.1,30.1-28.2,41.6c-7,15.9,3.8,25.8,10,31.6c5.1,4.8,19.1,7.4,26.1,6.5
					c11.6-1.5,13.7-11.1,13.7-11.1c19.6-3.4,6-62.2,6-62.2L358.2,718.2z"/>
				<path class="st35" d="M723.4,718.2c0,0,23.1,30.1,28.2,41.6c7,15.9-3.8,25.8-10,31.6c-5.1,4.8-19.1,7.4-26.1,6.5
					c-11.6-1.5-13.7-11.1-13.7-11.1c-19.6-3.4-6-62.2-6-62.2L723.4,718.2z"/>
				<polygon class="st36" points="420.3,535.3 348.3,723.6 401.5,743.2 428.6,659.6 428.6,542.8 				"/>
				<polygon class="st36" points="661.3,535.3 733.3,723.6 680.1,743.2 653,659.6 653,542.8 				"/>
				<path class="st36" d="M540.8,517.2l96.4,12.1l24.1,6c0,0-8.2,146.7,12.9,310.2c0,0,24.3,17.6,5.9,39.1c0,0-7-56.2-79.2-34.1
					c0,0-48.1,8.2-59.4,8.2h-1.2c-22.1,1.1-59.7-8.2-59.6-8.2c-72.1-22.2-79.2,34.1-79.2,34.1c-18.5-21.5,5.9-39.1,5.9-39.1
					c21.1-163.5,12.9-310.2,12.9-310.2l24.1-6l96.1-12.1H540.8z"/>
				<g>
					<polygon class="st36" points="541.1,496.3 465.8,508.8 420.3,535.3 437.8,588.6 459.9,590.7 436.6,614 540.3,764.9 
						498.2,528.5 					"/>
					<polygon class="st36" points="540.5,496.3 615.8,508.8 661.3,535.3 643.8,588.6 621.7,590.7 645,614 541.3,764.9 583.4,528.5 
											"/>
				</g>
				<polygon class="st34" points="474.3,548.9 476.7,584.3 510.3,596.2 517,633.8 564.6,633.8 571.5,595 605,587 607.3,549.6 				
					"/>
				<path class="st36" d="M398.9,258.9c0,0-41.5-18.9-92.9,11.3s-21.8,52.3-9.8,62.7c9.6,8.3,15.5,16.9,18.9,27.9
					c3.6,11.9,2.1,40,11.3,48.3c10.1,9.1,54.4,3.8,54.4,3.8L398.9,258.9z"/>
				<polygon class="st34" points="330,941.1 377.7,945.6 374.9,829.3 320.8,823 				"/>
				<path class="st33" d="M349.3,808.7l15.5,2l7-27.5c0,0-3.6-5.1-5.4-8c-0.8-1.3-5.6-2.2-5.6-2.2L349.3,808.7z"/>
				<line class="st33" x1="348.1" y1="826.2" x2="352.6" y2="943.2"/>
				<path class="st37" d="M530.7,858.6v33.1c0,0-19.5,30.2-35.6,40.5c-44.1,28.3-87.6,7-87.6,7c-4.1-5-5.7-21.3-1-25.7
					c0,0,58.5,7.4,82.3-4.3C513.3,897.3,530.7,858.6,530.7,858.6z"/>
				<path class="st18" d="M406.4,913.7c0,0-8.1-15.8-4.9-29.1c11.9-49.3,56.4-41,79.2-34.1l50,8.2c0,0-16,38-41.9,50.8
					C465.2,920.9,406.4,913.7,406.4,913.7z"/>
				<path class="st14" d="M462,855.5c4.5,0.9,8.7,2.2,12.2,3.4"/>
				<path class="st14" d="M412.3,880.6c8.2-22.7,25-27.4,40.5-26.3"/>
				<path class="st36" d="M543.1,219.1l81.4-1.3c0,0-56.8-82.2-83.3-84.8c-0.2,0-0.7,0-0.9,0c-25.2,0-83.3,84.8-83.3,84.8l81.4,1.3"
					/>
				<path class="st36" d="M681.3,258.9c0,0,41.5-18.9,92.9,11.3c51.4,30.2,21,51.5,9.8,62.7c-8.9,8.9-14.9,21.3-17.5,29.4
					c-3.8,12-3.3,38.9-12.7,46.9c-10.4,8.8-54.4,3.8-54.4,3.8L681.3,258.9z"/>
				<path class="st34" d="M540.3,579c21.1,0,75.4-6.4,75.4-6.4l-7,30.5c0,0-33,5.7-68.4,5.7h0.9c-35.4,0-68.4-5.7-68.4-5.7l-7-30.5
					c0,0,54.4,6.4,75.4,6.4H540.3z"/>
				<path class="st14" d="M549.3,590.2l0.9,0c-36,0.6-68.5-3.4-68.5-3.4"/>
				<polygon class="st34" points="541.3,624.2 625.5,624.2 625.5,662.8 541.3,662.8 540.3,662.8 456.1,662.8 456.1,624.2 
					540.3,624.2 				"/>
				<polygon class="st34" points="540.5,696.7 631.9,696.7 631.9,667.2 540.3,667.2 537.3,667.2 449.7,667.2 449.7,696.7 
					538.8,696.7 				"/>
				<line class="st28" x1="751.2" y1="291.3" x2="712.7" y2="281.6"/>
				<line class="st28" x1="751.2" y1="336.9" x2="729.7" y2="326.8"/>
				<path class="st37" d="M550.9,858.6v33.1c0,0,19.5,30.2,35.6,40.5c44.1,28.3,87.6,7,87.6,7c4.1-5,5.7-21.3,1-25.7
					c0,0-58.5,7.4-82.3-4.3C568.3,897.3,550.9,858.6,550.9,858.6z"/>
				<path class="st18" d="M675.2,913.7c0,0,8.1-15.8,4.9-29.1c-11.9-49.3-56.4-41-79.2-34.1l-50,8.2c0,0,16,38,41.9,50.8
					C616.4,920.9,675.2,913.7,675.2,913.7z"/>
				<path class="st33" d="M540.5,205.8c-149,0-186.4,81.1-191.3,140.2c-8.2,97.2,41,116.1,71.1,138.9c38.1,28.8,47.2,73.1,47.2,73.1
					s42.6,6.4,72.8,6.4h0.9c30.2,0,72.8-6.4,72.8-6.4s9.2-44.3,47.2-73.1c30-22.7,79.2-41.7,71.1-138.9
					c-5-59.1-42.3-140.2-191.3-140.2H540.5"/>
				<path class="st38" d="M585.8,221.4c-9.2-1.3-19.1-2.2-29.6-2.6"/>
				<path class="st38" d="M376.7,298.2c-8.1,17-12,34.5-13.3,50.4c-1.3,15.8-1,29.4,0.5,41.2"/>
				<path class="st38" d="M524.2,218.9c-62.1,2.9-101.1,22.1-125.2,47.2"/>
				<path class="st28" d="M541.3,764.9c0,0-14.3,14-16.5,20.1c-6.3,16.9-2,72.3-2,72.3"/>
				<polyline class="st4" points="361.7,757 366.7,775.1 350.9,768.8 				"/>
				<path class="st4" d="M379.8,786.8c-8.4,0.8-13.1-11.7-13.1-11.7"/>
				<line class="st4" x1="330.4" y1="291.3" x2="368.9" y2="281.6"/>
				<line class="st4" x1="330.4" y1="336.9" x2="351.9" y2="326.8"/>
				<line class="st4" x1="502.8" y1="207.7" x2="517" y2="178.8"/>
				<path class="st36" d="M411.5,810.7c0,0,31.4,2.5,40.9,1.6c17.2-1.6,28.3-9.5,30.1-22.3c1.4-10.6,1.7-34-0.9-49.7l-63.8-2.9
					L411.5,810.7z"/>
				<path class="st4" d="M500.6,837.9c0,0-46.6-8.4-64.3-5.2c-15.6,2.9-28.8,12.7-28.8,12.7"/>
				<path class="st4" d="M502.1,866.6c0,0-8.8-11.6-21.4-16.1"/>
				<g>
					<g>
						<circle class="st34" cx="457.8" cy="403.8" r="66.3"/>
						<path class="st14" d="M441,349c5.3-1.6,11-2.5,16.8-2.5"/>
						<path class="st14" d="M400.7,403.5c0-21,11.3-39.3,28.1-49.2"/>
						<circle class="st34" cx="623.3" cy="403.8" r="66.3"/>
					</g>
					<g>
						<circle class="st34" cx="457.8" cy="403.8" r="66.3"/>
						<path class="st14" d="M440.9,349c5.3-1.6,11-2.5,16.8-2.5"/>
						<path class="st14" d="M400.7,403.5c0-21,11.3-39.3,28.1-49.2"/>
						<circle class="st34" cx="623.2" cy="403.8" r="66.3"/>
						<path class="st14" d="M606.4,349c5.3-1.6,11-2.5,16.8-2.5"/>
						<path class="st14" d="M566.2,403.5c0-21,11.3-39.3,28.1-49.2"/>
					</g>
					<g>
						<circle class="st35" cx="458.3" cy="403.5" r="49.2"/>
						<circle class="st35" cx="623.3" cy="403.5" r="49.2"/>
					</g>
					<g>
						<g>
							<path class="st1" d="M468.3,384.8l9.9-17.5c-6-3.4-12.9-5.3-20.3-5.3c-7.4,0-14.3,1.9-20.3,5.3l9.9,17.6
								c3.1-1.7,6.7-2.7,10.5-2.7C461.6,382.1,465.2,383.1,468.3,384.8z"/>
							<path class="st1" d="M436.4,403.8l-20.1,0.1c0.1,15,8.2,28.1,20.2,35.3l10.3-17.3C440.7,418.2,436.5,411.5,436.4,403.8z"/>
							<path class="st1" d="M479.2,403.8c-0.1,7.8-4.3,14.5-10.5,18.2l10.4,17.2c12-7.2,20.1-20.2,20.3-35.2L479.2,403.8z"/>
						</g>
						<g>
							<path class="st1" d="M613.3,384.8l-9.9-17.5c6-3.4,12.9-5.3,20.3-5.3c7.4,0,14.3,1.9,20.3,5.3l-9.9,17.6
								c-3.1-1.7-6.7-2.7-10.5-2.7C620,382.1,616.4,383.1,613.3,384.8z"/>
							<path class="st1" d="M645.2,403.8l20.1,0.1c-0.1,15-8.2,28.1-20.2,35.3l-10.3-17.3C640.9,418.2,645.1,411.5,645.2,403.8z"/>
							<path class="st1" d="M602.4,403.8c0.1,7.8,4.3,14.5,10.5,18.2l-10.4,17.2c-12-7.2-20.1-20.2-20.3-35.2L602.4,403.8z"/>
						</g>
						<circle class="st39" cx="457.8" cy="403.8" r="12.3"/>
						<circle class="st40" cx="623.8" cy="403.5" r="11.8"/>
					</g>
				</g>
				<polyline class="st4" points="719.9,757 714.9,775.1 730.7,768.8 				"/>
				<path class="st4" d="M701.8,786.8c8.4,0.8,13.1-11.7,13.1-11.7"/>
				<line class="st4" x1="578.8" y1="207.7" x2="564.6" y2="178.8"/>
				<path class="st36" d="M670.1,810.7c0,0-31.4,2.5-40.9,1.6c-17.2-1.6-28.3-9.5-30.1-22.3c-1.4-10.6-1.7-34,0.9-49.7l63.8-2.9
					L670.1,810.7z"/>
				<path class="st4" d="M581,837.9c0,0,46.6-8.4,64.3-5.2c15.6,2.9,28.8,12.7,28.8,12.7"/>
				<path class="st4" d="M579.5,866.6c0,0,8.8-11.6,21.4-16.1"/>
				<g>
					<line class="st4" x1="457.8" y1="471.4" x2="490.7" y2="561"/>
					<line class="st4" x1="412.9" y1="354.3" x2="381.5" y2="263.7"/>
					<line class="st14" x1="398.3" y1="348" x2="386.7" y2="314.4"/>
					<line class="st4" x1="623.8" y1="471.4" x2="590.9" y2="561"/>
					<line class="st4" x1="668.7" y1="354.3" x2="700.1" y2="263.7"/>
					<line class="st4" x1="541.1" y1="162.9" x2="541.2" y2="563.9"/>
					<line class="st14" x1="524.1" y1="236.2" x2="524.2" y2="323.4"/>
				</g>
				<path class="st4" d="M536.1,843.7c0,0,13.2,1.2,25.4-3.3"/>
				<circle class="st36" cx="544.1" cy="799.8" r="11.3"/>
				<line class="st14" x1="476.8" y1="634.8" x2="550.5" y2="634.8"/>
				<line class="st14" x1="466.2" y1="655.7" x2="466.2" y2="633.8"/>
				<line class="st14" x1="471.2" y1="677.9" x2="550.5" y2="677.9"/>
				<line class="st14" x1="460.1" y1="689.5" x2="460.1" y2="674.9"/>
				<path class="st14" d="M640.6,855.4c4.2,0.4,8.4,1.3,12.5,2.3"/>
				<path class="st14" d="M587.6,874.3c8.4-14.1,26.6-20.3,44-19.5"/>
			</g>
			<line class="st14" x1="418.7" y1="392" x2="455.4" y2="440.6"/>
			<line class="st14" x1="426.7" y1="374.7" x2="440.5" y2="393.5"/>
			<line class="st14" x1="582.5" y1="392" x2="619.3" y2="440.6"/>
			<line class="st14" x1="590.6" y1="374.7" x2="604.4" y2="393.5"/>
			<line class="st14" x1="332.8" y1="867.3" x2="331.3" y2="833.4"/>
			<line class="st14" x1="340.6" y1="817.3" x2="368.6" y2="820.3"/>
		</g>
	</g>
</g>
<g id="клоун">
</g>
<g id="пила">
	<g id="Слой_6">
	</g>
</g>
<g id="шестерка_лупа">
	<g id="Слой_10">
	</g>
</g>
<g id="шестерка_микрофон">
</g>
<g id="шестерка_радость">
</g>
<g id="шестерка_радость_2">
</g>
</svg>
