<?xml version="1.0" encoding="utf-8"?>
<!-- Generator: Adobe Illustrator 24.1.2, SVG Export Plug-In . SVG Version: 6.00 Build 0)  -->
<svg version="1.1" xmlns="http://www.w3.org/2000/svg" xmlns:xlink="http://www.w3.org/1999/xlink" x="0px" y="0px"
	 viewBox="0 0 1080.4 1080" style="enable-background:new 0 0 1080.4 1080;" xml:space="preserve">
<style type="text/css">
	.st0{fill:url(#SVGID_1_);}
	.st1{stroke:#000000;stroke-width:5;stroke-linecap:round;stroke-linejoin:round;stroke-miterlimit:10;}
	.st2{fill:#707070;}
	.st3{fill:#707070;stroke:#000000;stroke-width:5;stroke-linecap:round;stroke-linejoin:round;stroke-miterlimit:10;}
	.st4{fill:none;stroke:#000000;stroke-width:5;stroke-linecap:round;stroke-linejoin:round;stroke-miterlimit:10;}
	.st5{fill:url(#SVGID_2_);}
	.st6{fill:url(#SVGID_3_);}
	.st7{fill:url(#SVGID_4_);}
	.st8{fill:url(#SVGID_5_);}
	.st9{fill:#3E3E3E;stroke:#000000;stroke-width:5;stroke-miterlimit:10;}
	.st10{fill:#707070;stroke:#000000;stroke-width:5;stroke-miterlimit:10;}
	.st11{fill:none;}
	.st12{fill:#0A0909;}
	.st13{fill:#6E6E6E;}
	.st14{fill:none;stroke:#FFFFFF;stroke-width:5;stroke-linecap:round;stroke-linejoin:round;stroke-miterlimit:10;}
	.st15{fill:#3E3E3E;}
	.st16{fill:#3E3E3E;stroke:#020202;stroke-width:5;stroke-linecap:round;stroke-linejoin:round;stroke-miterlimit:10;}
	.st17{fill:#2A2A2A;stroke:#050505;stroke-width:5;stroke-linecap:round;stroke-linejoin:round;stroke-miterlimit:10;}
	.st18{fill:#1C1C1C;stroke:#000000;stroke-width:5;stroke-linecap:round;stroke-linejoin:round;stroke-miterlimit:10;}
	.st19{fill:#2A2A2A;stroke:#020202;stroke-width:5;stroke-linecap:round;stroke-linejoin:round;stroke-miterlimit:10;}
	.st20{fill:#D3A3BD;stroke:#188917;stroke-width:5;stroke-linecap:round;stroke-linejoin:round;stroke-miterlimit:10;}
	.st21{fill:#CB0202;stroke:#020202;stroke-width:5;stroke-linecap:round;stroke-linejoin:round;stroke-miterlimit:10;}
	.st22{fill:#707070;stroke:#000000;stroke-width:5;stroke-linecap:round;stroke-miterlimit:10;}
	.st23{fill:none;stroke:#707070;stroke-width:5;stroke-linecap:round;stroke-miterlimit:10;}
	.st24{fill:#6A0113;}
	.st25{fill:#CB0202;}
	.st26{fill:#2A2A2A;}
	.st27{fill:#707070;stroke:#180017;stroke-width:5;stroke-linecap:round;stroke-linejoin:round;stroke-miterlimit:10;}
	.st28{fill:none;stroke:#180017;stroke-width:5;stroke-linecap:round;stroke-linejoin:round;stroke-miterlimit:10;}
	.st29{fill:#1C1C1C;stroke:#180017;stroke-width:5;stroke-linecap:round;stroke-linejoin:round;stroke-miterlimit:10;}
	.st30{fill:#AE021E;stroke:#180017;stroke-width:5;stroke-linecap:round;stroke-linejoin:round;stroke-miterlimit:10;}
	.st31{fill:#B6B6B6;}
	.st32{fill:#180017;}
	.st33{fill:#3E3E3E;stroke:#000000;stroke-width:5;stroke-linecap:round;stroke-linejoin:round;stroke-miterlimit:10;}
	.st34{fill:#707070;stroke:#050505;stroke-width:5;stroke-linecap:round;stroke-linejoin:round;stroke-miterlimit:10;}
	.st35{fill:#B6B6B6;stroke:#000000;stroke-width:5;stroke-linecap:round;stroke-linejoin:round;stroke-miterlimit:10;}
	.st36{fill:#FFFFFF;stroke:#000000;stroke-width:5;stroke-linecap:round;stroke-linejoin:round;stroke-miterlimit:10;}
	.st37{fill:#181617;stroke:#000000;stroke-width:5;stroke-linecap:round;stroke-linejoin:round;stroke-miterlimit:10;}
	.st38{fill:none;stroke:#FFFFFF;stroke-width:4.6396;stroke-linecap:round;stroke-linejoin:round;stroke-miterlimit:10;}
	.st39{stroke:#000000;stroke-width:4.4811;stroke-linecap:round;stroke-linejoin:round;stroke-miterlimit:10;}
	.st40{stroke:#000000;stroke-width:4.2964;stroke-linecap:round;stroke-linejoin:round;stroke-miterlimit:10;}
	.st41{display:none;}
	.st42{display:inline;fill:none;stroke:#000000;stroke-width:5;stroke-linecap:round;stroke-linejoin:round;stroke-miterlimit:10;}
	.st43{fill:#1C1C1C;}
	.st44{fill:#6A0113;stroke:#000000;stroke-width:5;stroke-linecap:round;stroke-linejoin:round;stroke-miterlimit:10;}
	.st45{fill:#6E6E6E;stroke:#000000;stroke-width:5;stroke-linecap:round;stroke-linejoin:round;stroke-miterlimit:10;}
	.st46{fill:#6F6F6F;stroke:#000000;stroke-width:5;stroke-linecap:round;stroke-linejoin:round;stroke-miterlimit:10;}
	.st47{fill:#AE021E;stroke:#000000;stroke-width:5;stroke-linecap:round;stroke-linejoin:round;stroke-miterlimit:10;}
	.st48{fill:none;stroke:#FFFFFF;stroke-width:4.6842;stroke-linecap:round;stroke-linejoin:round;stroke-miterlimit:10;}
	.st49{fill:#52020F;stroke:#000000;stroke-width:5;stroke-linecap:round;stroke-linejoin:round;stroke-miterlimit:10;}
	.st50{fill:#CB0202;stroke:#000000;stroke-width:5;stroke-linecap:round;stroke-linejoin:round;stroke-miterlimit:10;}
	.st51{fill:#CB0302;stroke:#000000;stroke-width:5;stroke-linecap:round;stroke-linejoin:round;stroke-miterlimit:10;}
	.st52{fill:#FFFFFF;}
	.st53{fill:#AE021E;stroke:#000000;stroke-width:4.4601;stroke-linecap:round;stroke-linejoin:round;stroke-miterlimit:10;}
	.st54{fill:#AE021E;stroke:#FFFFFF;stroke-width:4.4601;stroke-linecap:round;stroke-linejoin:round;stroke-miterlimit:10;}
	.st55{fill:#AE021E;stroke:#FFFFFF;stroke-width:5;stroke-linecap:round;stroke-linejoin:round;stroke-miterlimit:10;}
	.st56{fill:none;stroke:#1C1C1C;stroke-width:2;stroke-linecap:round;stroke-linejoin:round;stroke-miterlimit:10;}
	.st57{fill:#717171;}
	.st58{fill:#191718;}
	.st59{fill:none;stroke:#000000;stroke-width:10;stroke-linecap:round;stroke-linejoin:round;stroke-miterlimit:10;}
	.st60{fill:none;stroke:#000000;stroke-width:8;stroke-linecap:round;stroke-linejoin:round;stroke-miterlimit:10;}
	.st61{fill:#FF0000;stroke:#000000;stroke-width:5;stroke-linecap:round;stroke-linejoin:round;stroke-miterlimit:10;}
	.st62{fill:#1D1D1D;}
	.st63{fill:none;stroke:#FFFFFF;stroke-width:4.4425;stroke-linecap:round;stroke-linejoin:round;stroke-miterlimit:10;}
	.st64{fill:#6B0014;}
	.st65{fill:none;stroke:#FFFFFF;stroke-width:4.6071;stroke-linecap:round;stroke-linejoin:round;stroke-miterlimit:10;}
	.st66{fill:#AF001F;}
	.st67{fill:none;stroke:#FF0000;stroke-width:5;stroke-linecap:round;stroke-linejoin:round;stroke-miterlimit:10;}
	.st68{fill:#020202;stroke:#000000;stroke-width:5;stroke-linecap:round;stroke-linejoin:round;stroke-miterlimit:10;}
	.st69{fill:#AE011E;}
</style>
<g id="демон">
</g>
<g id="ученый">
</g>
<g id="клоун">
	<g>
		<g>
			<rect x="0.3" y="691.8" class="st26" width="1080.3" height="388.2"/>
			<g>
				<g>
					<polygon class="st43" points="557.6,1080 557.9,987.9 680.4,987.9 699.7,1080 					"/>
					<polygon class="st43" points="557.9,904.3 662.8,904.3 648.2,836.3 557.9,836.3 					"/>
					<polygon class="st43" points="557.4,730.6 626.4,730.6 636.9,779.4 557.9,779.4 					"/>
					<polygon class="st43" points="662.8,904.3 680.4,987.9 817.9,987.9 784.5,904.3 					"/>
					<polygon class="st43" points="648.2,836.3 757.4,836.3 733.9,779.7 636.9,779.4 					"/>
					<polygon class="st43" points="626.4,730.6 618.3,691.8 699.7,691.8 715.1,730.4 					"/>
					<polygon class="st43" points="817.9,987.9 854.7,1080 1080.3,1080.8 1007.6,987.9 					"/>
					<polygon class="st43" points="784.5,904.3 941.5,904.3 887.7,836.3 757.4,836.3 					"/>
					<polygon class="st43" points="733.9,779.7 842.7,779.4 803.3,730.6 715.1,730.4 					"/>
					<polygon class="st43" points="803.3,730.6 904.5,730.4 854.7,691.8 773.3,691.8 					"/>
					<polygon class="st43" points="842.7,779.4 887.7,836.3 1041.1,836.5 966.2,779.4 					"/>
					<polygon class="st43" points="941.5,904.3 1007.6,987.9 1080.6,987.9 1080.3,904.3 					"/>
					<polygon class="st43" points="1041.1,836.5 1080.6,836.3 1080.3,867 					"/>
					<polygon class="st43" points="904.5,730.4 966.2,779.4 1080.6,779.4 1080.3,768.7 1002.5,730.6 					"/>
					<polygon class="st43" points="1002.5,730.6 927.2,691.8 1008.5,691.8 1082,709.2 1082,730.6 					"/>
				</g>
				<polygon class="st43" points="557.9,987.9 557.9,904.3 452.2,904 434.6,987.9 				"/>
				<polygon class="st43" points="557.9,836.3 557.9,779.4 478.2,779.7 466.3,836.5 				"/>
				<polygon class="st43" points="557.4,730.6 557.6,691.8 496.2,691.8 488.5,730.6 				"/>
				<polygon class="st43" points="478.2,779.7 488.5,730.6 399.9,730.3 380.3,779.4 				"/>
				<polygon class="st43" points="466.3,836.5 452.2,904 330.6,904 357.6,836.3 				"/>
				<polygon class="st43" points="434.6,987.9 415.3,1080.8 260.3,1080 297.1,987.9 				"/>
				<polygon class="st43" points="330.6,904 297.1,987.9 107.3,987.9 173.7,904 				"/>
				<polygon class="st43" points="357.6,836.3 380.3,779.4 272.3,779.4 227.1,836.5 				"/>
				<polygon class="st43" points="399.9,730.3 415.3,691.8 341.6,691.8 311.9,730.3 				"/>
				<polygon class="st43" points="272.3,779.4 311.9,730.3 210.6,730.3 144.5,779.7 				"/>
				<polygon class="st43" points="227.1,836.5 173.7,904 0.3,904 0.3,891.5 73.8,836.5 				"/>
				<polygon class="st43" points="143.3,778.7 72.6,835.5 0.2,835.3 0.2,787.2 17.9,778.5 				"/>
				<polygon class="st43" points="34.4,1080 107.3,987.9 0.3,987.9 0.3,1080 				"/>
				<polygon class="st43" points="210.6,730.3 260.3,691.8 185.5,691.8 111.1,730.3 				"/>
				<polygon class="st43" points="111.1,730.3 0.2,730.3 0.6,777.4 17,777.4 				"/>
				<polygon class="st43" points="103.5,692.6 0.2,718.2 0.2,691.8 				"/>
			</g>
			<rect x="0.6" class="st15" width="1080" height="691.8"/>
			<g>
				<rect x="0.2" class="st24" width="81.3" height="691.8"/>
				<rect x="158.1" class="st24" width="81.3" height="691.8"/>
				<rect x="311.9" class="st24" width="81.3" height="691.8"/>
				<rect x="463.3" class="st24" width="81.3" height="691.8"/>
				<rect x="618.3" class="st24" width="81.3" height="691.8"/>
				<rect x="773.3" class="st24" width="81.3" height="691.8"/>
				<rect x="927.2" class="st24" width="81.3" height="691.8"/>
			</g>
			<g>
				<path class="st3" d="M378.3,0.6H703c0,0-39.3,180.3-162.4,180.3C418.6,180.8,378.3,0.6,378.3,0.6z"/>
				<path class="st44" d="M378.3,0.6H703c0,0-39.3,122.3-162.4,122.3C418.6,122.9,378.3,0.6,378.3,0.6z"/>
				<g>
					<path class="st45" d="M0.4,1.3h226.3c0,0-60.4,405.1-226.3,763.6V1.3z"/>
					<path class="st44" d="M0.4,1.3h176.4c0,0-33.2,271.1-176.4,642.7V1.3z"/>
					<path class="st46" d="M0.4,1.3l384.9-0.8c0,0-45.9,204.2-164.6,216C105.3,228.1,0.4,108.9,0.4,108.9V1.3z"/>
					<path class="st44" d="M0.4,1.3l384.9-0.8c0,0-45.9,152.8-164.6,164.6C105.3,176.7,0.4,39.8,0.4,39.8V1.3z"/>
					<line class="st44" x1="60.5" y1="316.3" x2="0.4" y2="541.3"/>
					<line class="st44" x1="30.5" y1="217.3" x2="0.4" y2="406.9"/>
					<path class="st4" d="M120.5,77.1C243.3,156.7,385.3,0.6,385.3,0.6S209.1,71.1,120.5,23.7"/>
				</g>
				<g>
					<path class="st45" d="M1080.4,1.7l-226.3,0c0,0,60.4,405.1,226.3,763.6V1.7z"/>
					<path class="st44" d="M1080.4,1.7L904,1.7c0,0,33.2,271.1,176.4,642.7V1.7z"/>
					<path class="st46" d="M1080.4,1.7L695.6,0.9c0,0,45.9,204.2,164.6,216c115.3,11.5,220.2-107.7,220.2-107.7V1.7z"/>
					<path class="st44" d="M1080.4,1.7L695.6,0.9c0,0,45.9,152.8,164.6,164.6c115.3,11.5,220.2-125.4,220.2-125.4V1.7z"/>
					<line class="st44" x1="1020.3" y1="316.6" x2="1080.4" y2="541.7"/>
					<line class="st44" x1="1050.4" y1="217.7" x2="1080.4" y2="407.3"/>
					<path class="st4" d="M960.4,77.5C837.6,157,695.6,0.9,695.6,0.9s176.2,70.5,264.8,23.2"/>
				</g>
				<path class="st4" d="M495.6,73.6c-58.6-11.8-117.3-73-117.3-73s62.4,30.7,117.3,27.2"/>
				<path class="st4" d="M585.8,73.6C644.4,61.7,703,0.6,703,0.6s-62.4,30.7-117.3,27.2"/>
			</g>
		</g>
		<g>
			<path class="st47" d="M413.1,420.2l-29.2,54.4l-14.1-6.5v21.1c-91-31.2-75-88.6-75-88.6c-36-41,0-81.4,0-81.4
				c-16-40.3,51.9-108.9,142.5-42L413.1,420.2z"/>
			<path class="st14" d="M293,378.2c-11.1-32.9,16-57.2,16-57.2"/>
			<path class="st14" d="M337.5,459.7c-27-18-32.5-39.1-33-51.7"/>
			<path class="st14" d="M358,470.7c-3.3-1.4-6.4-2.9-9.3-4.4"/>
			<path class="st14" d="M381.8,264.2c5.3,1.3,10.7,3.1,16.3,5.6"/>
			<path class="st14" d="M305.7,299.8c6.5-20.1,29.5-39.1,60.7-37.8"/>
			<path class="st47" d="M595.1,420.2l29.2,54.4l14.1-6.5v21.1c91-31.2,75-88.6,75-88.6c36-41,0-81.4,0-81.4
				c16-40.3-51.9-108.9-142.5-42L595.1,420.2z"/>
			<path class="st36" d="M393.1,393.9c-7.7-5.3-28-9.4-37.4,0c-28.1,28.1,37.1,77.6,49.2,76.7c4.3-0.3,17.3,0,17.3,0
				S409.9,405.5,393.1,393.9z"/>
			<path class="st36" d="M615.9,393.5c7.7-5.3,28-9.4,37.4,0c28.1,28.1-37.1,77.6-49.2,76.7c-4.3-0.3-17.3,0-17.3,0
				S599,405.2,615.9,393.5z"/>
			<path class="st35" d="M354.1,625.2c0,0,13,15.7,18.1,12.8c20.8-11.8,49.8-65.2,49.8-65.2l15.1,33.7c0,0-38.8,60.6-60.5,62.9
				c-17,1.8-42.2-26.6-42.2-26.6L354.1,625.2z"/>
			<path class="st35" d="M654,625.2c0,0-13,15.7-18.1,12.8c-20.8-11.8-49.8-65.2-49.8-65.2L571,606.4c0,0,38.8,60.6,60.5,62.9
				c17,1.8,42.2-26.6,42.2-26.6L654,625.2z"/>
			<g>
				<g>
					<g>
						<g>
							<path class="st35" d="M678.5,806.3c0,26.1-78.2,47.3-174.7,47.3 M503.7,853.6l106.4,101.7l68.3-149"/>
							<path class="st35" d="M503.7,853.6c-96.5,0-174.7-21.2-174.7-47.3 M329,806.3l69.1,149l105.7-101.7"/>
							<path class="st48" d="M428.2,862c-28.8-3.3-53.2-8.4-70.6-14.7 M428.2,862 M439.5,863.2 M461.4,864.8
								c-7.5-0.4-14.8-1-21.9-1.7"/>
						</g>
						<g>
							<path class="st47" d="M722,909.8c0,19.6-45.1,36.6-111.8,45.5 M722,909.8l-43.5-103.5l-68.3,149"/>
							<path class="st47" d="M610.1,955.3c-31.4,4.2-67.5,6.6-106,6.6c-38.5,0-74.6-2.4-106-6.6 M610.1,955.3L503.7,853.6
								L398.1,955.3"/>
							<path class="st47" d="M398.1,955.3c-66.7-8.9-111.8-26-111.8-45.5 M398.1,955.3l-69.1-149l-42.8,103.5"/>
						</g>
					</g>
					<ellipse class="st49" cx="503.7" cy="806.3" rx="174.7" ry="47.3"/>
				</g>
				<g>
					<path class="st35" d="M504.1,954l-13.7-29.5l-29-14.8l28.4-8.8l14.2-28.2 M504.1,954l13.7-29.5l29-14.8l-28.4-8.8l-14.2-28.2"
						/>
					<path class="st35" d="M716.7,913.4l-24.9-17.5l-36.3,6.3l25.8-30.9l0.9-31.6 M716.7,913.4l-5.5-29.1l-9.3-22.2l0,0l-19.6-22.4"
						/>
					<path class="st35" d="M325.4,839.8l1.2,31.5l26.1,30.7l-36.3-6l-24.7,17.7 M325.4,839.8l-19.4,22.5l0,0l-9.2,22.3l-5.2,29.2"/>
				</g>
			</g>
			<path class="st50" d="M505,599.5l68-10.1c0,0,18.1,58.2,12.8,68.1c0,0,26.9,17.8,24.9,75.9c-1,28.9-25.1,35.7-25.1,35.7
				l-65.7,24.4c0,0-16.1-13.8-14.9-48h-1.8c1.2,34.2-14.9,48-14.9,48l-65.7-24.4c0,0-24.1-6.9-25.1-35.7
				c-1.9-58.1,24.9-75.9,24.9-75.9c-5.4-10,12.8-68.1,12.8-68.1l68,10.1H505z"/>
			<polygon class="st3" points="506.1,525.3 582.4,489.2 700.5,515.9 688.6,555.6 676.6,541.7 666.3,584.2 650.2,562.6 633.1,603.5 
				612.3,585.8 591.8,628.3 559.2,605.4 534.1,640.1 503.9,612.6 504.3,612.6 474.1,640.1 449,605.4 416.4,628.3 395.8,585.8 
				375.1,603.5 358,562.6 341.9,584.2 331.5,541.7 319.6,555.6 307.7,515.9 425.8,489.2 502.1,525.3 			"/>
			<polygon class="st35" points="503.9,487.7 576.8,476.6 694.8,497.8 682.2,532 676.7,514.4 659.5,551.1 650.2,532 631.4,573.8 
				608,550.4 589.1,595.5 557,567.8 531.9,611.1 503.9,572.8 504.3,572.8 476.3,611.1 451.2,567.8 419.1,595.5 400.2,550.4 
				376.8,573.8 358,532 348.7,551.1 331.5,514.4 325.9,532 313.4,497.8 431.3,476.6 504.3,487.7 			"/>
			<path class="st36" d="M504.3,538.4c28-0.3,74.9-30.5,91.5-50.7c9-10.9,11.4-39.2,15-52.9c12-45.6,40.8-115-50.9-163.8
				c-13.3-7.1-56-21.9-56-21.9h0.4c0,0-42.7,14.8-56,21.9c-91.6,48.8-62.9,118.3-50.9,163.8c3.6,13.6,6,42,15,52.9
				C429.1,508,476.3,538.4,504.3,538.4"/>
			<ellipse class="st21" cx="734.8" cy="273.7" rx="111.3" ry="155.6"/>
			<path class="st14" d="M720.1,132.3c6-1.6,12.1-2.4,18.4-2.4"/>
			<path class="st14" d="M687.1,149.8c4.9-4.2,10.2-7.7,15.6-10.7"/>
			<path class="st14" d="M644,327.4c-4.5-16.4-7-34.2-7-52.8c0-42.1,12.6-80,32.7-106.5"/>
			<path class="st14" d="M656.3,359.4c-2.6-5.1-5-10.5-7.1-16.2"/>
			<polygon class="st21" points="729.2,429.1 699,467.6 745.9,471.1 			"/>
			<path class="st4" d="M294.7,319.2c0,0,8.1-9.7,18.4-15.3"/>
			<path class="st4" d="M294.7,400.6c0,0,3.1-11.8,12.1-20.1"/>
			<polygon class="st51" points="563.9,351.4 574.3,429.1 563.9,480.3 553.5,429.4 			"/>
			<polygon class="st51" points="444.3,351.4 433.9,429.1 444.3,480.3 454.7,429.4 			"/>
			<path class="st4" d="M363.5,402.9c0,0,18.1,3.1,30.7,20.4"/>
			<circle class="st36" cx="445" cy="430.2" r="35"/>
			<circle class="st36" cx="564" cy="429.8" r="35"/>
			<path class="st4" d="M383.2,440c0,0-5.5-13.8-2.7-29.8"/>
			<circle class="st51" cx="445" cy="430.2" r="22.1"/>
			<circle class="st1" cx="445" cy="430.2" r="7.7"/>
			<circle class="st52" cx="433.9" cy="420.1" r="7.7"/>
			<circle class="st52" cx="447.8" cy="415.4" r="4.9"/>
			<path class="st51" d="M480,461.9c0,0,11.7,2.8,24,2.8c12.2,0,24.5-3.5,24.5-3.5c-2.3,8.7-13,10.9-13,10.9
				c-6.7,13.4-15.9,13-21.7,0C493.9,472,481.7,470.7,480,461.9z"/>
			<path class="st4" d="M448.3,487.7c0,0,17.4,8.4,28,8.4c10.2,0,15.1-1.3,28-1.1v26.2c-14.1,0.1-23.1-7-33.7-17.6
				C460.1,493.1,448.3,487.7,448.3,487.7z"/>
			<line class="st4" x1="488.3" y1="495.6" x2="488.3" y2="517.6"/>
			<path class="st4" d="M714.3,318.8c0,0-8.1-9.7-18.4-15.3"/>
			<path class="st4" d="M714.3,400.2c0,0-3.1-11.8-12.1-20.1"/>
			<path class="st4" d="M645.5,402.6c0,0-19,3.7-31.6,21"/>
			<path class="st4" d="M625.8,439.7c0,0,5.5-13.8,2.7-29.8"/>
			<circle class="st51" cx="564" cy="429.8" r="22.1"/>
			<circle class="st1" cx="563.9" cy="429.8" r="7.7"/>
			<path class="st47" d="M413.3,818.2c-6.5-5.2-11.8-18.3-7.3-32.2c11.1-34.2,85.1-22.1,90.9,3.3c2.6,11.3,0.8,24.2-4.8,29
				C477.1,831,428.7,830.5,413.3,818.2z"/>
			<path class="st54" d="M466.8,776.7c3,0.7,5.9,1.6,8.6,2.7"/>
			<path class="st54" d="M413.5,793.5c4.2-16.7,25.4-21.7,44.9-18.9"/>
			<line class="st4" x1="440.2" y1="677" x2="422.4" y2="657.5"/>
			<path class="st4" d="M424.8,756.2c0,0,26.9-18,67.1,4"/>
			<line class="st4" x1="504.3" y1="612.6" x2="504.3" y2="572.8"/>
			<line class="st4" x1="504.3" y1="538.4" x2="504.3" y2="572.8"/>
			<line class="st4" x1="331.5" y1="541.7" x2="342.2" y2="537.3"/>
			<line class="st4" x1="358" y1="562.6" x2="368.7" y2="555.8"/>
			<line class="st4" x1="395.8" y1="585.8" x2="410.3" y2="574.6"/>
			<line class="st4" x1="449" y1="605.4" x2="462.1" y2="586.6"/>
			<line class="st4" x1="331.5" y1="514.4" x2="418" y2="493.8"/>
			<line class="st4" x1="358" y1="532" x2="431.1" y2="505.2"/>
			<line class="st4" x1="400.2" y1="550.4" x2="447.5" y2="516.6"/>
			<line class="st4" x1="451.2" y1="567.8" x2="473.4" y2="530.5"/>
			<path class="st4" d="M559.9,487.7c0,0-17.4,8.4-28,8.4c-10.2,0-15.1-1.3-28-1.1v26.2c14.1,0.1,23.1-7,33.7-17.6
				C548.1,493.1,559.9,487.7,559.9,487.7z"/>
			<line class="st4" x1="519.9" y1="495.6" x2="519.9" y2="517.6"/>
			<path class="st47" d="M594.9,818.2c6.5-5.2,11.8-18.3,7.3-32.2c-11.1-34.2-85.1-22.1-90.9,3.3c-2.6,11.3-0.8,24.2,4.8,29
				C531.1,831,579.5,830.5,594.9,818.2z"/>
			<path class="st4" d="M541.4,723.7c-17.5,15.2-36.4,21.8-36.4,21.8h-1.8c0,0-18.9-6.6-36.4-21.8"/>
			<line class="st4" x1="567.9" y1="677" x2="585.7" y2="657.5"/>
			<path class="st4" d="M583.4,756.2c0,0-26.9-18-67.1,4"/>
			<path class="st4" d="M504.9,681c-8.5,0-15.3,6.9-15.3,15.3c0,8.5,6.9,15.3,15.3,15.3"/>
			<line class="st4" x1="503.9" y1="612.6" x2="503.9" y2="572.8"/>
			<line class="st4" x1="503.9" y1="538.4" x2="503.9" y2="572.8"/>
			<line class="st4" x1="676.6" y1="541.7" x2="666" y2="537.3"/>
			<line class="st4" x1="650.2" y1="562.6" x2="639.5" y2="555.8"/>
			<line class="st4" x1="612.3" y1="585.8" x2="597.8" y2="574.6"/>
			<line class="st4" x1="559.2" y1="605.4" x2="546.1" y2="586.6"/>
			<line class="st4" x1="676.7" y1="514.4" x2="590.2" y2="493.8"/>
			<line class="st4" x1="650.2" y1="532" x2="577.1" y2="505.2"/>
			<line class="st4" x1="608" y1="550.4" x2="560.7" y2="516.6"/>
			<line class="st4" x1="557" y1="567.8" x2="534.8" y2="530.5"/>
			<path class="st47" d="M410.5,815.5c-5-0.3,0.5,17.8,5.3,19.4c7,2.4,66,2.3,72.5,0c4.6-1.6,11.4-18.1,6.5-18.1
				C461.6,816.2,436.8,817.1,410.5,815.5z"/>
			<path class="st47" d="M598.5,815.1c5-0.3-0.5,17.8-5.3,19.4c-7,2.4-66,2.3-72.5,0c-4.6-1.6-11.4-18.1-6.5-18.1
				C547.4,815.9,572.2,816.7,598.5,815.1z"/>
			<circle class="st35" cx="503.2" cy="651.8" r="15.3"/>
			<path class="st14" d="M493.9,651.8c0-5.2,4.2-9.4,9.4-9.4c2.6,0,4.9,1.1,6.6,2.7"/>
			<circle class="st35" cx="503.2" cy="696.4" r="15.3"/>
			<path class="st36" d="M331.8,657.5c-5.6,3.3-15.1-21.1-15.1-21.1s-72.4-14.6-67.5-32.6c1.9-7.1,29.5,2.3,29.5,2.3
				s-51.5-27.5-43.6-39.9c7-11,48.3,19.8,48.3,19.8s-47.3-37.5-36.9-48.7c9.8-10.6,48.7,31.2,48.7,31.2s-27.9-42.8-16.5-49
				c11.7-6.3,24.7,31.2,33,41.6c3.1,3.9,7.6,16.7,12.4,15.4c9.5-2.6,5.7-37.8,15.4-36.3c18,2.8,7,72.5,7,72.5s21.2,2.7,20.1,8.1
				C364.4,632.9,344.4,650.2,331.8,657.5z"/>
			<path class="st47" d="M480.5,207.8c0,0-23.8,14.2-32.3,28.4c-3.7,6.3-5.5,12.1-4.7,21.4c0.8,9.9,7.1,19.5,15.5,20.6
				c22.8,3.2,28.5-19.1,28.5-19.1s-2.7,8.5,3.2,12.8c10.1,7.2,16.3,1.1,30,3c8.1,1.2,20.1,12.1,28.2,9.4c8.7-2.9,6.5-11.9,12.4-19.5
				c48.2-62-46-79.6-46-79.6s-17.3,50-31.6,41.6C478.7,223.8,480.5,207.8,480.5,207.8z"/>
			<path class="st55" d="M475.3,221.8c-7,4.6-15.8,11.2-20.1,17.7c-3.5,5.3-5.2,10.3-4.5,18.2"/>
			<path class="st14" d="M521.2,196.4c0,0-11.9,30.7-23.9,35.5"/>
			<path class="st36" d="M666.6,611.3c0,0-22,5.1-21.6,11.2c0.5,9,19.8,31.7,27.7,32.9c6.7,1.1,15.6-22.2,15.6-22.2
				c0.7-2.7,47.2-2.4,57.4-9.9c11.4-8.4,5.2-23.7,5.2-23.7s7.5-7.2,0.8-13.8c0,0,6-7.1-1.2-14.4c0,0,5.5-3.7,6.5-8.9
				c4.3-22.1-23.4-41.8-32.7-34.2c-11.9,9.6,8.4,24.5,8.4,24.5c-2,6.3-21.3,15.8-21.3,15.8c0.2-0.5,15.1-23.3,8.1-31.3
				c-7.1-8.1-33.4,20.5-42.9,29.4c-7.8,7.3-8.5,45.2-9.8,44.4L666.6,611.3z"/>
			<path class="st4" d="M733.3,611.9c0,0-21,8.1-22.8-2.5c-3.2-19.3,35.7-17.1,40.4-9.8"/>
			<path class="st4" d="M751.7,585.8c-7.9-9.6-50.5-6.8-48.5,10.7c0.6,5.8,7.8,6.4,7.8,6.4"/>
			<path class="st4" d="M750.6,571.5c-8.8-9.4-50.9-4.8-50.9,9.1c0,6.9,5.7,8.7,5.7,8.7"/>
			<path class="st4" d="M712.5,426.9c4.5-15.4,1.3-26.7,1.3-26.7c36-41,0-81.4,0-81.4c12.7-32-27.4-81.8-89.8-67.5"/>
			<path class="st4" d="M714.4,614.2c-2.1,59.4-0.9,121.2,8,165.6"/>
			<path class="st4" d="M729.2,429.1c-1,0.7-8.6,133.1-12.6,139.1"/>
			<path class="st14" d="M591.1,280c4.5-3,18.1-10.6,23.7-13.1"/>
			<path class="st54" d="M525.2,783.5c-4.9,3.3-6.6,7.7-7.6,12.2"/>
			<path class="st54" d="M584.6,778.4c-13.6-7.1-34.7-5.9-50,0.2"/>
			<path class="st14" d="M493.9,696.1c0-5.2,4.2-9.4,9.4-9.4c2.6,0,4.9,1.1,6.6,2.7"/>
			<line class="st14" x1="727.8" y1="445.1" x2="713.9" y2="462.8"/>
			<circle class="st52" cx="553.5" cy="420.1" r="7.7"/>
			<circle class="st52" cx="568" cy="415.4" r="4.9"/>
		</g>
	</g>
</g>
<g id="пила">
	<g id="Слой_6">
	</g>
</g>
<g id="шестерка_лупа">
	<g id="Слой_10">
	</g>
</g>
<g id="шестерка_микрофон">
</g>
<g id="шестерка_радость">
</g>
<g id="шестерка_радость_2">
</g>
</svg>
