<?xml version="1.0" encoding="utf-8"?>
<!-- Generator: Adobe Illustrator 26.4.1, SVG Export Plug-In . SVG Version: 6.00 Build 0)  -->
<svg version="1.1" xmlns="http://www.w3.org/2000/svg" xmlns:xlink="http://www.w3.org/1999/xlink" x="0px" y="0px"
	 viewBox="0 0 1066.8 1066.8" style="enable-background:new 0 0 1066.8 1066.8;" xml:space="preserve">
<style type="text/css">
	.st0{fill:url(#SVGID_1_);}
	.st1{fill:url(#SVGID_00000075121548776949735450000003243887835260986029_);}
	.st2{fill:url(#SVGID_00000168116029436679917240000000714542620771590794_);}
	.st3{fill:#474747;}
	.st4{fill:#3D3D3D;}
	.st5{fill:none;stroke:#000000;stroke-width:5;stroke-miterlimit:10;}
	.st6{fill:#1C1C1C;}
	.st7{fill:#BFBFBF;}
	.st8{fill:#6C0015;}
	.st9{fill:none;stroke:#7A7A7A;stroke-width:5;stroke-linecap:round;stroke-miterlimit:2;}
	.st10{fill:#1C1C1C;stroke:#FFFFFF;stroke-width:5;stroke-miterlimit:10;}
	.st11{fill:url(#SVGID_00000140729256537367186110000011417023786038765473_);}
	.st12{fill:url(#SVGID_00000160185667219266064530000008087143195345661597_);}
	.st13{fill:url(#SVGID_00000023964728888968717070000000501081281009084314_);}
	.st14{fill:#B6B6B6;stroke:#000000;stroke-width:5;stroke-linecap:round;stroke-linejoin:round;stroke-miterlimit:10;}
	.st15{fill:none;stroke:#000000;stroke-width:5;stroke-linecap:round;stroke-miterlimit:2;}
	.st16{fill:none;stroke:#000000;stroke-width:5;stroke-linecap:round;stroke-linejoin:round;stroke-miterlimit:10;}
	.st17{fill:#1C1C1C;stroke:#000000;stroke-width:5;stroke-linecap:round;stroke-linejoin:round;stroke-miterlimit:10;}
	.st18{fill:#717171;stroke:#000000;stroke-width:5;stroke-linecap:round;stroke-miterlimit:2;}
	
		.st19{fill:url(#SVGID_00000023273679319696566960000007575207902905664129_);stroke:#000000;stroke-width:5;stroke-linecap:round;stroke-linejoin:round;stroke-miterlimit:10;}
	.st20{fill:#FFFFFF;stroke:#000000;stroke-width:5;stroke-linecap:round;stroke-linejoin:round;stroke-miterlimit:10;}
	.st21{stroke:#000000;stroke-width:5;stroke-linecap:round;stroke-linejoin:round;stroke-miterlimit:10;}
	.st22{fill:#1D1D1D;}
	.st23{fill:none;stroke:#000000;stroke-width:5;stroke-linecap:round;stroke-miterlimit:10;}
	.st24{fill:none;stroke:#FFFFFF;stroke-width:5;stroke-linecap:round;stroke-linejoin:round;stroke-miterlimit:10;}
	.st25{fill:url(#SVGID_00000072978105774112167350000005339937551389776530_);}
	.st26{fill:url(#SVGID_00000014615872090002138180000006356749400935053745_);}
	.st27{fill:url(#SVGID_00000078035847464096235970000007411647553055688347_);}
	
		.st28{fill:url(#SVGID_00000008111537302371347820000012637713737212958394_);stroke:#000000;stroke-width:5;stroke-linecap:round;stroke-linejoin:round;stroke-miterlimit:10;}
	.st29{fill:url(#SVGID_00000120542858589190963870000016395843628591499924_);}
	.st30{fill:url(#SVGID_00000119812048237081454980000004037341615171580593_);}
	.st31{fill:url(#SVGID_00000050622229139429711280000006168778914924479908_);}
	
		.st32{fill:url(#SVGID_00000164515101238624876810000003070096695822918313_);stroke:#000000;stroke-width:5;stroke-linecap:round;stroke-linejoin:round;stroke-miterlimit:10;}
	
		.st33{fill:url(#SVGID_00000022523357622136077900000008750554003721049986_);stroke:#000000;stroke-width:5;stroke-linecap:round;stroke-linejoin:round;stroke-miterlimit:10;}
	.st34{fill:url(#SVGID_00000147192210761421444610000005817702995470591658_);}
	.st35{fill:#707070;}
	.st36{fill:#707070;stroke:#000000;stroke-width:5;stroke-linecap:round;stroke-linejoin:round;stroke-miterlimit:10;}
	.st37{fill:url(#SVGID_00000005972275949923435920000003617761813126444966_);}
	.st38{fill:url(#SVGID_00000124130351509433483150000013257761115141386131_);}
	.st39{fill:url(#SVGID_00000087413307613069885910000007511576198667517618_);}
	.st40{fill:url(#SVGID_00000061468470953494542590000002448109317230143892_);}
	.st41{fill:#3E3E3E;stroke:#000000;stroke-width:5;stroke-miterlimit:10;}
	.st42{fill:#707070;stroke:#000000;stroke-width:5;stroke-miterlimit:10;}
	.st43{fill:none;}
	.st44{fill:#0A0909;}
	.st45{fill:#6E6E6E;}
	.st46{fill:#3E3E3E;}
	.st47{fill:#3E3E3E;stroke:#020202;stroke-width:5;stroke-linecap:round;stroke-linejoin:round;stroke-miterlimit:10;}
	.st48{fill:#2A2A2A;stroke:#050505;stroke-width:5;stroke-linecap:round;stroke-linejoin:round;stroke-miterlimit:10;}
	.st49{fill:none;stroke:#CB0202;stroke-width:5;stroke-linecap:round;stroke-linejoin:round;stroke-miterlimit:10;}
	.st50{fill:#2A2A2A;stroke:#020202;stroke-width:5;stroke-linecap:round;stroke-linejoin:round;stroke-miterlimit:10;}
	.st51{fill:#D3A3BD;stroke:#188917;stroke-width:5;stroke-linecap:round;stroke-linejoin:round;stroke-miterlimit:10;}
	.st52{fill:#CB0202;stroke:#020202;stroke-width:5;stroke-linecap:round;stroke-linejoin:round;stroke-miterlimit:10;}
	.st53{fill:#707070;stroke:#000000;stroke-width:5;stroke-linecap:round;stroke-miterlimit:10;}
	.st54{fill:none;stroke:#707070;stroke-width:5;stroke-linecap:round;stroke-miterlimit:10;}
	.st55{fill:url(#SVGID_00000120520086338922450530000002724873476243740573_);}
	.st56{fill:url(#SVGID_00000132090156312234330460000011902094805893291663_);}
	.st57{fill:url(#SVGID_00000058563182467394050690000002150854680328878500_);}
	.st58{fill:url(#SVGID_00000118389264244603745990000012572732317648529796_);}
	.st59{fill:url(#SVGID_00000045599512047178547420000004876181497175989432_);}
	.st60{fill:#3E3E3E;stroke:#000000;stroke-width:5;stroke-linecap:round;stroke-linejoin:round;stroke-miterlimit:10;}
	.st61{fill:#707070;stroke:#050505;stroke-width:5;stroke-linecap:round;stroke-linejoin:round;stroke-miterlimit:10;}
	.st62{fill:#181617;stroke:#000000;stroke-width:5;stroke-linecap:round;stroke-linejoin:round;stroke-miterlimit:10;}
	.st63{fill:none;stroke:#180017;stroke-width:5;stroke-linecap:round;stroke-linejoin:round;stroke-miterlimit:10;}
	.st64{fill:none;stroke:#FFFFFF;stroke-width:4.6396;stroke-linecap:round;stroke-linejoin:round;stroke-miterlimit:10;}
	.st65{stroke:#000000;stroke-width:4.4811;stroke-linecap:round;stroke-linejoin:round;stroke-miterlimit:10;}
	.st66{stroke:#000000;stroke-width:4.2964;stroke-linecap:round;stroke-linejoin:round;stroke-miterlimit:10;}
	.st67{fill:#6A0113;}
	.st68{fill:#CB0202;}
	.st69{fill:#2A2A2A;}
	.st70{fill:#707070;stroke:#180017;stroke-width:5;stroke-linecap:round;stroke-linejoin:round;stroke-miterlimit:10;}
	.st71{fill:#1C1C1C;stroke:#180017;stroke-width:5;stroke-linecap:round;stroke-linejoin:round;stroke-miterlimit:10;}
	.st72{fill:#AE021E;stroke:#180017;stroke-width:5;stroke-linecap:round;stroke-linejoin:round;stroke-miterlimit:10;}
	.st73{fill:#B6B6B6;}
	.st74{fill:#180017;}
	.st75{display:none;}
	.st76{display:inline;fill:none;stroke:#000000;stroke-width:5;stroke-linecap:round;stroke-linejoin:round;stroke-miterlimit:10;}
	.st77{fill:#6A0113;stroke:#000000;stroke-width:5;stroke-linecap:round;stroke-linejoin:round;stroke-miterlimit:10;}
	.st78{fill:#6E6E6E;stroke:#000000;stroke-width:5;stroke-linecap:round;stroke-linejoin:round;stroke-miterlimit:10;}
	.st79{fill:#6F6F6F;stroke:#000000;stroke-width:5;stroke-linecap:round;stroke-linejoin:round;stroke-miterlimit:10;}
	.st80{fill:#AE021E;stroke:#000000;stroke-width:5;stroke-linecap:round;stroke-linejoin:round;stroke-miterlimit:10;}
	.st81{fill:none;stroke:#FFFFFF;stroke-width:4.6842;stroke-linecap:round;stroke-linejoin:round;stroke-miterlimit:10;}
	.st82{fill:#52020F;stroke:#000000;stroke-width:5;stroke-linecap:round;stroke-linejoin:round;stroke-miterlimit:10;}
	.st83{fill:#CB0202;stroke:#000000;stroke-width:5;stroke-linecap:round;stroke-linejoin:round;stroke-miterlimit:10;}
	.st84{fill:#CB0302;stroke:#000000;stroke-width:5;stroke-linecap:round;stroke-linejoin:round;stroke-miterlimit:10;}
	.st85{fill:#FFFFFF;}
	.st86{fill:#AE021E;stroke:#000000;stroke-width:4.4601;stroke-linecap:round;stroke-linejoin:round;stroke-miterlimit:10;}
	.st87{fill:#AE021E;stroke:#FFFFFF;stroke-width:4.4601;stroke-linecap:round;stroke-linejoin:round;stroke-miterlimit:10;}
	.st88{fill:#AE021E;stroke:#FFFFFF;stroke-width:5;stroke-linecap:round;stroke-linejoin:round;stroke-miterlimit:10;}
	.st89{fill:none;stroke:#1C1C1C;stroke-width:2;stroke-linecap:round;stroke-linejoin:round;stroke-miterlimit:10;}
	.st90{fill:none;stroke:#6A0113;stroke-miterlimit:10;}
	.st91{fill:#717171;stroke:#000000;stroke-width:5;stroke-linecap:round;stroke-linejoin:round;stroke-miterlimit:10;}
	.st92{fill:#191718;stroke:#000000;stroke-width:5;stroke-linecap:round;stroke-linejoin:round;stroke-miterlimit:10;}
	.st93{fill:none;stroke:#000000;stroke-width:10;stroke-linecap:round;stroke-linejoin:round;stroke-miterlimit:10;}
	.st94{fill:none;stroke:#000000;stroke-width:8;stroke-linecap:round;stroke-linejoin:round;stroke-miterlimit:10;}
	.st95{fill:#FF0000;stroke:#000000;stroke-width:5;stroke-linecap:round;stroke-linejoin:round;stroke-miterlimit:10;}
	.st96{fill:#1D1D1D;stroke:#000000;stroke-width:5;stroke-linecap:round;stroke-linejoin:round;stroke-miterlimit:10;}
	.st97{fill:none;stroke:#FFFFFF;stroke-width:4.4425;stroke-linecap:round;stroke-linejoin:round;stroke-miterlimit:10;}
	.st98{fill:#6B0014;stroke:#000000;stroke-width:5;stroke-linecap:round;stroke-linejoin:round;stroke-miterlimit:10;}
	.st99{fill:none;stroke:#FFFFFF;stroke-width:4.6071;stroke-linecap:round;stroke-linejoin:round;stroke-miterlimit:10;}
	.st100{fill:#AF001F;stroke:#000000;stroke-width:5;stroke-linecap:round;stroke-linejoin:round;stroke-miterlimit:10;}
	.st101{fill:none;stroke:#FF0000;stroke-width:5;stroke-linecap:round;stroke-linejoin:round;stroke-miterlimit:10;}
	.st102{fill:#020202;stroke:#000000;stroke-width:5;stroke-linecap:round;stroke-linejoin:round;stroke-miterlimit:10;}
	.st103{fill:#AE011E;stroke:#000000;stroke-width:5;stroke-linecap:round;stroke-linejoin:round;stroke-miterlimit:10;}
	.st104{opacity:0.24;}
	.st105{fill:#B6B6B6;stroke:#B6B6B6;stroke-width:5;stroke-linecap:round;stroke-linejoin:round;stroke-miterlimit:10;}
	.st106{fill:#3E3E3E;stroke:#3E3E3E;stroke-width:5;stroke-linecap:round;stroke-linejoin:round;stroke-miterlimit:10;}
	.st107{fill:none;stroke:#FFFFFF;stroke-width:10;stroke-linecap:round;stroke-linejoin:round;stroke-miterlimit:10;}
	.st108{fill:none;stroke:#8EFF6E;stroke-width:5;stroke-linecap:round;stroke-linejoin:round;stroke-miterlimit:10;}
	.st109{fill:#CB0202;stroke:#CB0202;stroke-width:5;stroke-linecap:round;stroke-linejoin:round;stroke-miterlimit:10;}
	.st110{fill:none;stroke:#FFFFFF;stroke-width:4.7117;stroke-linecap:round;stroke-linejoin:round;stroke-miterlimit:10;}
	.st111{fill:none;stroke:#FFFFFF;stroke-width:5.2076;stroke-linecap:round;stroke-linejoin:round;stroke-miterlimit:10;}
	.st112{fill:#FFFFFF;stroke:#FFFFFF;stroke-width:5;stroke-linecap:round;stroke-linejoin:round;stroke-miterlimit:10;}
	.st113{fill:none;stroke:#000000;stroke-width:14;stroke-linecap:round;stroke-linejoin:round;stroke-miterlimit:10;}
	.st114{fill:#FFFFFF;stroke:#000000;stroke-width:5;stroke-miterlimit:10;}
	.st115{stroke:#000000;stroke-width:5;stroke-miterlimit:10;}
	.st116{fill:#FFFFFF;stroke:#FFFFFF;stroke-width:5;stroke-miterlimit:10;}
	.st117{fill:none;stroke:#FFFFFF;stroke-width:5;stroke-miterlimit:10;}
	.st118{fill:#232323;}
</style>
<g id="Слой_12">
	<g>
		<g>
			<linearGradient id="SVGID_1_" gradientUnits="userSpaceOnUse" x1="565.2564" y1="-116.2714" x2="455.819" y2="602.8882">
				<stop  offset="4.155676e-07" style="stop-color:#666666"/>
				<stop  offset="0.1972" style="stop-color:#484848"/>
				<stop  offset="0.4441" style="stop-color:#292929"/>
				<stop  offset="0.5816" style="stop-color:#1D1D1D"/>
			</linearGradient>
			<polygon class="st0" points="0,0 1066.8,0 1066.8,186.3 518.2,332.8 			"/>
			
				<linearGradient id="SVGID_00000143597119641524312370000001879987657745744823_" gradientUnits="userSpaceOnUse" x1="29.9435" y1="704.7953" x2="551.8445" y2="314.3778">
				<stop  offset="0" style="stop-color:#6C0015"/>
				<stop  offset="0.169" style="stop-color:#630316"/>
				<stop  offset="0.4452" style="stop-color:#4B0C18"/>
				<stop  offset="0.7927" style="stop-color:#231B1C"/>
				<stop  offset="0.8392" style="stop-color:#1D1D1D"/>
			</linearGradient>
			<polygon style="fill:url(#SVGID_00000143597119641524312370000001879987657745744823_);" points="0,1066.8 0,0 518.2,332.8 
				518.2,1066.8 			"/>
			
				<linearGradient id="SVGID_00000065761280636759912970000009181514177639405991_" gradientUnits="userSpaceOnUse" x1="1107.4058" y1="906.0289" x2="559.0573" y2="419.4029">
				<stop  offset="0.213" style="stop-color:#CC0001"/>
				<stop  offset="0.3585" style="stop-color:#A50607"/>
				<stop  offset="0.6492" style="stop-color:#5C1313"/>
				<stop  offset="0.858" style="stop-color:#2F1A1A"/>
				<stop  offset="0.9627" style="stop-color:#1D1D1D"/>
			</linearGradient>
			<polygon style="fill:url(#SVGID_00000065761280636759912970000009181514177639405991_);" points="518.2,1066.8 518.2,332.8 
				1066.8,186.3 1066.8,1066.8 			"/>
		</g>
		<g>
			<g id="XMLID_00000000939730678497304120000013906377856669889707_">
				<g>
					<polygon class="st3" points="303.2,956.6 303.2,998.9 224.1,986.3 224.1,996.5 224.1,1066.8 184.3,1066.8 184.3,980 
						88.7,964.7 88.7,919.9 172.3,934.2 184.3,936.3 184.3,846.4 224.1,854.4 224.1,943.1 					"/>
					<polygon class="st4" points="303.2,998.9 291.2,1007.2 224.1,996.5 224.1,986.3 					"/>
					<polygon class="st4" points="184.3,980 184.3,1066.8 172.3,1066.8 172.3,988.2 					"/>
					<polygon class="st4" points="184.3,846.4 184.3,936.3 172.3,934.2 172.3,854.6 					"/>
					<polygon class="st4" points="184.3,980 172.3,988.2 76.7,973 88.7,964.7 					"/>
					<polygon class="st4" points="88.7,919.9 88.7,964.7 76.7,973 76.7,928.1 					"/>
				</g>
				<g>
					<polygon class="st5" points="184.3,980 184.3,1066.8 224.1,1066.8 224.1,996.5 224.1,986.3 303.2,998.9 303.2,956.6 
						224.1,943.1 224.1,854.4 184.3,846.4 184.3,936.3 172.3,934.2 88.7,919.9 88.7,964.7 					"/>
					<polyline class="st5" points="172.3,934.2 172.3,854.6 184.3,846.4 					"/>
					<polyline class="st5" points="224.1,996.5 291.2,1007.2 303.2,998.9 					"/>
					<polyline class="st5" points="88.7,919.9 76.7,928.1 76.7,973 172.3,988.2 172.3,1066.8 184.3,1066.8 					"/>
					<line class="st5" x1="88.7" y1="964.7" x2="76.7" y2="973"/>
					<line class="st5" x1="172.3" y1="988.2" x2="184.3" y2="980"/>
				</g>
			</g>
		</g>
		<g>
			<g id="XMLID_00000077290485821136592050000014869090940368027528_">
				<g>
					<polygon class="st6" points="1066.8,773.8 1066.8,1066.8 935.1,1066.8 935.1,785.2 					"/>
					<polygon class="st7" points="1066.8,735.4 1066.8,773.8 935.1,785.2 935.1,1066.8 901.8,1066.8 901.8,749.7 					"/>
					<polygon class="st8" points="1066.8,681.7 1066.8,735.4 901.8,749.7 840.6,702.1 					"/>
					<polygon class="st8" points="901.8,749.7 901.8,1066.8 840.6,1066.8 840.6,702.1 					"/>
				</g>
				<g>
					<polygon class="st5" points="1066.8,735.4 1066.8,681.7 840.6,702.1 840.6,1066.8 901.8,1066.8 935.1,1066.8 1066.8,1066.8 
						1066.8,773.8 					"/>
					<polyline class="st5" points="901.8,1066.8 901.8,749.7 1066.8,735.4 					"/>
					<polyline class="st5" points="935.1,1066.8 935.1,785.2 1066.8,773.8 					"/>
					<line class="st5" x1="840.6" y1="702.1" x2="901.8" y2="749.7"/>
				</g>
			</g>
		</g>
		<g>
			<polyline class="st9" points="112.6,251.3 134.9,108.3 151.9,0 			"/>
			<polyline class="st9" points="335.4,0 135.4,105 231.9,0 			"/>
			<line class="st9" x1="28.8" y1="291.3" x2="131" y2="133.5"/>
			<path class="st9" d="M44.6,121L0,245.7l77-28.9C88,163.1,44.6,121,44.6,121z"/>
			<path class="st9" d="M28.8,118.7C65.5,98.4,67.3,0,67.3,0L131,133.5L0,114.6"/>
			<path class="st9" d="M101.3,179.4c9.1-36.4-24.6-53.7-24.6-53.7S99.7,75.3,67.3,0"/>
			<path class="st9" d="M103.4,129.5c14-5.9,14-24.4,14-24.4"/>
			<path class="st9" d="M101.3,71.2c0,0,19.9,10.9,39.9-2.7"/>
			<path class="st9" d="M82.5,31.9c30.8,17.2,65.4-7,65.4-7s14.1,27.5,41.1,21.7"/>
			<path class="st9" d="M207.8,26.2c0,0-8.2,27.6,16.4,32.1"/>
			<path class="st9" d="M224.3,8.3c0,0,9.9,31.1,38.8,29.7"/>
			<path class="st9" d="M18.8,193.2c0,0-9,35.4,18,38.7"/>
		</g>
		<circle class="st10" cx="971.6" cy="828.8" r="1.5"/>
		<circle class="st10" cx="993.8" cy="934.5" r="1.5"/>
		<circle class="st10" cx="1039.6" cy="950.1" r="1.5"/>
		<circle class="st10" cx="1060.2" cy="911.5" r="1.5"/>
		<circle class="st10" cx="1049.8" cy="809.4" r="1.5"/>
		<circle class="st10" cx="1038.1" cy="1027.2" r="1.5"/>
	</g>
	<g>
		<g>
			<g>
				<path class="st14" d="M797.3,434.5c1.5-5.6,4.6-15.9,4.6-15.9s101.2-14.6,109.6,0c3.3,5.8-42.8,7.2-42.8,7.2s49.5,5.1,52.4,18.1
					c2.6,11.4-49.7,0.3-49.7,0.3s49.1,8.6,49.7,22.3c0.5,13-51.5-1.8-51.5-1.8s47,10.9,43.7,22c-3.4,11.4-30.7,0.5-42.1-3.8
					c-4.2-1.6-18.9-8.2-21.1-4.3c-4.4,7.7,25.3,19.9,18.4,33.4c-7.4,14.5-71.8-48.3-71.8-48.3S794,447.2,797.3,434.5z"/>
				<path class="st14" d="M358.3,275l-21.7,11.4c0,0,11.1-22.6,0-51.8c-11.1-29.2-15.5-27.7-15.1-37.9c0.4-9,17.6-31.6,17.6-31.6
					s9.5-12.1-25.9-25.2c-23.1-8.5-28.9-42.6-70.6-42.1c-4.2,0.1-11.1,0.1-13.8,4.7c-3.3,5.4,7,9.2,15.7,19.6
					c19.5,23.3,33.2,50.1,38.5,70c5.7,21.5-3.1,74.2-0.9,135c0.6,16.7,13,21.5,25.2,22.6c23.3,2,68.4-9.3,68.4-9.3L358.3,275z"/>
				<path class="st14" d="M640.5,128c0,0,17.4-7.1,23.5-8.1c4.5-0.7,14.2-2.3,18.1,0c27.4,16,94.6,56.3,117.2,65
					c11,4.2,3.3-15.3,19.5-38.5c2.7-3.8-15.4-7-18.4-10.5c-7.8-9.3-3.6-15.7,5.1-16c6.1-0.2,17.1,7.1,23.2,7.8
					c12.8,1.4,28.5,2.8,32.5,10.2c3.8,7.1,6.8,24.2,4.5,31.9c-6.3,21.4-10.7,29.4-27.4,59.9c-2.3,4.2-9,14.2-21.4,9.9
					c-4.7-1.6-10.5-10.9-15.1-12.9c-22.5-10.1-17.5-2.3-91.8-11.1c-45.8-5.4-64.5-58.9-64.5-58.9L640.5,128z"/>
				<path class="st15" d="M370.2,254.7c0,0-2.3,69.7,15.3,92.1"/>
				<path class="st15" d="M394.1,298.2c0,0-8.6-30.5-2.7-65"/>
				<path class="st15" d="M605.1,123.8c0,0,43,32.6,46.6,97.6"/>
				<line class="st16" x1="458.2" y1="287.8" x2="452.5" y2="326.6"/>
				<line class="st16" x1="485.1" y1="298.2" x2="476.1" y2="324.2"/>
				<line class="st16" x1="545.4" y1="286.2" x2="564.4" y2="323.5"/>
				<line class="st16" x1="578.1" y1="291.2" x2="590.1" y2="325.9"/>
				<path class="st16" d="M628.4,270.2c5.2,38.4-7.6,67.3-7.6,67.3"/>
				<path class="st17" d="M246,595.5l-43.4-52.8c-3.8-4.6-3.1-11.4,1.5-15.1l5.9-4.9c4.6-3.8,11.4-3.1,15.1,1.5l43.4,52.8
					c3.8,4.6,3.1,11.4-1.5,15.1l-5.9,4.9C256.6,600.7,249.8,600,246,595.5z"/>
				<path class="st15" d="M623.8,215.5c0,0-2.7-57.8-52.8-84.2"/>
				<path class="st14" d="M216.3,581.6c4.3,11.7,24.8,10.6,34.8,2c6.8-5.9,3.4-13-3.1-12.8c-1.1,0-3.3,0.8-5.3,1.5"/>
				<path class="st14" d="M204.6,570c0,0-0.5,8.4,11.7,11.6c7.5,1.9,24.9-5.1,28.4-11.9c3.7-7.3-6.4-11.9-10.5-9.1"/>
				<path class="st14" d="M237.4,547.5c0.2,0.1,0.3,0.3,0.4,0.4c2.2,2.3,2.3,7.7-1.4,10.8c-9.5,8.3-20.2,10.9-31.8,11.3
					c-9.1,0.3-21.5-20.7-21.9-29.8c-0.4-9.5,11-18.3,19.2-23.3c10-6,48.1-9.5,48.1-9.5l26,31.6c0,0,2.5,13.8-14.6,29.1l-18.1-22.1"
					/>
				<path class="st14" d="M254.1,507.7c-11.1-2.1-33.3,9.8-42,17.2c-8.9,7.5-29.3,30-21.5,38.6c5.4,6,16.9-11.7,24-15.4
					c12.8-6.5,27,13.2,52.5-24.2C270.1,519.7,259.2,508.7,254.1,507.7z"/>
				<path class="st18" d="M393.9,399c0,0-76.3,10.2-96.3,25c-34.6,25.6-72.4,71.7-72.4,71.7c6.5,13.2,37.2,34.9,53.8,59.3
					c0,0,20.2-22,46.4-45.8c19.6-17.8,62.9-25.9,62.9-25.9s187.4-5.6,250.5-3.2c42.2,1.7,169.6,13.1,169.6,13.1
					c-10.6-37.5,6.5-83.1,6.5-83.1s-61.3-14.2-82.2-16.3c-26.7-2.6-107.5,0-107.5,0s12.2-20,15.4-27.1
					c11.6-26.7,27.9-81.5,30.4-110.5c3.1-35.4-14.2-141.5-14.2-141.5s-64.8,10.4-85.8,16.5c-9.9,2.9-28,14.2-38.3,15.2
					c-99.7,10.1-118.7,56.2-132.4,75.8c-13.1,18.7-48.3,49-48.3,49C362,384,393.9,399,393.9,399z"/>
				
					<linearGradient id="SVGID_00000142866406877354288310000009295318568435121827_" gradientUnits="userSpaceOnUse" x1="506.2729" y1="631.4659" x2="506.2729" y2="416.587">
					<stop  offset="0" style="stop-color:#B3B3B3"/>
					<stop  offset="1" style="stop-color:#000000"/>
				</linearGradient>
				
					<path style="fill:url(#SVGID_00000142866406877354288310000009295318568435121827_);stroke:#000000;stroke-width:5;stroke-linecap:round;stroke-linejoin:round;stroke-miterlimit:10;" d="
					M452.5,416.6h110.6l-13.9,202.7c0,0-20.7,12.1-34.6,12.2c-16.3,0.1-65.2-41.2-65.2-41.2L452.5,416.6z"/>
				<path class="st20" d="M532.6,579.1c-1.8,0-46-10.5-46-10.5l7.8,19.9l-7.8,12.3l46,5.4V579.1z"/>
				<polyline class="st16" points="532.6,585.1 506.3,595.3 502.9,583.6 494.4,588.4 				"/>
				
					<ellipse transform="matrix(0.6351 -0.7724 0.7724 0.6351 -225.8756 560.7979)" class="st21" cx="480.7" cy="519.5" rx="15.9" ry="26.9"/>
				<g id="XMLID_00000153707838109967374720000009423995799713535144_">
					<g>
						<path class="st22" d="M657.2,365.9c44,46.2,33.9,110.4,28.5,162.1c-3.8,36.3-20.8,144.5-20.8,144.5l-23-22.6l-2-1.7l1.1-1.2
							c0,0,38.3-194.6,0-241.2c-63-76.5-128-14.2-128-14.2v-30.5l6.1-26.3C519,334.9,589.1,294.5,657.2,365.9z"/>
						<path class="st22" d="M640.9,405.9c38.3,46.6,0,241.2,0,241.2l-1.1,1.2l-37.6,42.1c0,0,29.7-196.9,4.1-255.3
							c-29.3-66.6-94.9-23.5-95.9-22.9l2.4-20.5C512.9,391.6,577.9,329.3,640.9,405.9z"/>
						<path class="st22" d="M606.4,435c25.7,58.4-4.1,255.3-4.1,255.3l-45.4,50.9l5-178.7c2.9-54.5,1.6-108.2-12.2-128.7
							c-24.7-36.7-41.4-3.5-41.4-3.5l2.2-18.2c0,0,0,0,0,0C511.4,411.5,577.1,368.4,606.4,435z"/>
						<path class="st22" d="M561.9,562.5c-3.8,72-15.1,145.5-15.1,145.5c-46.7-156.8-7.5-233.4-21-266.9c-6.1-15.1-21,19.3-21,19.3
							l3.6-30.1c0,0,16.7-33.2,41.4,3.5C563.4,454.3,564.8,508,561.9,562.5z"/>
						<path class="st22" d="M519,334.9l-6.1,26.3c0,0-79.3-44.5-105.7,56.2c-17.6,67.1,10.2,277.1,10.2,277.1l-14.9,25.7
							c0,0-58-278.1-8.4-350.2C446,294.5,519,334.9,519,334.9z"/>
						<path class="st22" d="M512.9,361.2v30.5c0,0-65.7-41.8-90.1,44.7c-12.7,45.2,7.2,141.8,4.7,188.3
							c-0.4,6.8-10.2,25.1-10.2,25.1s14.2,2.4,25.2,12.5l-25.2,32.2c0,0-27.8-210-10.2-277.1C433.6,316.7,512.9,361.2,512.9,361.2z"
							/>
						<path class="st22" d="M512.9,391.6l-2.4,20.5c0,0,0,0,0,0l-2.2,18.2l-3.6,30.1c0,0-12.8-20.2-20.1-20
							c-30.3,0.9,2.5,169.1-7.7,223.6c-2.7,14.5-21.7,30.5-21.7,30.5c0.5-15.2-5.4-25.4-12.8-32.2c-11-10.2-25.2-12.5-25.2-12.5
							s9.8-18.3,10.2-25.1c2.5-46.5-17.5-143.2-4.7-188.3C447.2,349.9,512.9,391.6,512.9,391.6z"/>
					</g>
					<g>
						<line class="st23" x1="510.5" y1="412.1" x2="508.3" y2="430.4"/>
						<path class="st23" d="M504.7,460.5c0,0-12.8-20.2-20.1-20c-30.3,0.9,2.5,169.1-7.7,223.6c-2.7,14.5-21.7,30.5-21.7,30.5
							c0.5-15.2-5.4-25.4-12.8-32.2c-11-10.2-25.2-12.5-25.2-12.5s9.8-18.3,10.2-25.1c2.5-46.5-17.5-143.2-4.7-188.3
							c24.4-86.5,90.1-44.7,90.1-44.7l-2.4,20.5"/>
						<path class="st23" d="M519,334.9c0,0-73-40.3-124.9,35.1c-49.6,72.2,8.4,350.2,8.4,350.2l14.9-25.7c0,0-27.8-210-10.2-277.1
							c26.4-100.7,105.7-56.2,105.7-56.2L519,334.9z"/>
						<line class="st23" x1="442.5" y1="662.3" x2="417.4" y2="694.5"/>
						<path class="st23" d="M641.8,650l23,22.6c0,0,17-108.2,20.8-144.5c5.4-51.7,15.6-115.9-28.5-162.1
							c-68.1-71.4-138.2-31-138.2-31"/>
						<path class="st23" d="M504.7,460.5c0,0,14.9-34.5,21-19.3c13.5,33.5-25.7,110.1,21,266.9c0,0,11.3-73.4,15.1-145.5
							c2.9-54.5,1.6-108.2-12.2-128.7c-24.7-36.7-41.4-3.5-41.4-3.5"/>
						<line class="st23" x1="508.3" y1="430.4" x2="504.7" y2="460.5"/>
						<path class="st23" d="M561.9,562.3l0,0.3l-5,178.7l45.4-50.9l37.6-42.1l1.1-1.2c0,0,38.3-194.6,0-241.2
							c-63-76.5-128-14.2-128-14.2v-30.5"/>
						<path class="st23" d="M602.3,690.3c0,0,29.7-196.9,4.1-255.3c-29.3-66.6-94.9-23.5-95.9-22.9c0,0,0,0,0,0"/>
					</g>
				</g>
				<path class="st18" d="M216.3,517.7l-66.6-117.7c0,0-26.8,53.9,47,133.7L216.3,517.7z"/>
				<g>
					<path class="st24" d="M410.1,370c0,0,4-9.3,17.2-16"/>
					<path class="st24" d="M428.9,388.8c0,0,4.3-8.5,17.6-15.3"/>
					<path class="st24" d="M449.2,409.1c0,0,3.3-6.9,11.4-11.8"/>
					<path class="st24" d="M458.5,418.4c0,0,3.4-6.4,9.6-10.5"/>
				</g>
				<path class="st24" d="M539.4,343.7c0,0,9-4.8,23.8-4"/>
				<path class="st24" d="M538.9,362.2c0,0,9.8-5.4,23-6.2"/>
				<path class="st24" d="M535.8,388.3c0,0,8.1-3.3,17.5-3.4"/>
				<path class="st24" d="M530.7,409.8c0,0,5.1-1.2,13.1-0.7"/>
			</g>
			<path class="st15" d="M370.2,255.2c0,0-2.3,69.7,15.3,92.1"/>
			<path class="st15" d="M394.1,298.7c0,0-8.6-30.5-2.7-65"/>
			<path class="st15" d="M605.1,124.3c0,0,43,32.6,46.6,97.6"/>
			<line class="st16" x1="458.2" y1="288.3" x2="452.5" y2="327.1"/>
			<line class="st16" x1="485.1" y1="298.7" x2="476.1" y2="324.7"/>
			<line class="st16" x1="545.4" y1="286.8" x2="564.4" y2="324.1"/>
			<line class="st16" x1="578.1" y1="291.7" x2="590.1" y2="326.5"/>
			<path class="st16" d="M628.4,270.7c5.2,38.4-7.6,67.3-7.6,67.3"/>
			<path class="st15" d="M623.8,216.1c0,0-2.7-57.8-52.8-84.2"/>
		</g>
		<circle class="st10" cx="485.1" cy="514.1" r="1.4"/>
	</g>
</g>
<g id="демон">
</g>
<g id="ученый">
</g>
<g id="клоун">
</g>
<g id="пила">
	<g id="Слой_6">
	</g>
</g>
<g id="шестерка_лупа">
	<g id="Слой_10">
	</g>
</g>
<g id="шестерка_микрофон">
</g>
<g id="шестерка_радость">
</g>
<g id="шестерка_радость_2">
</g>
</svg>
