<?xml version="1.0" encoding="utf-8"?>
<!-- Generator: Adobe Illustrator 24.1.2, SVG Export Plug-In . SVG Version: 6.00 Build 0)  -->
<svg version="1.1" xmlns="http://www.w3.org/2000/svg" xmlns:xlink="http://www.w3.org/1999/xlink" x="0px" y="0px"
	 viewBox="0 0 1080 1080" style="enable-background:new 0 0 1080 1080;" xml:space="preserve">
<style type="text/css">
	.st0{fill:url(#SVGID_1_);}
	.st1{stroke:#000000;stroke-width:5;stroke-linecap:round;stroke-linejoin:round;stroke-miterlimit:10;}
	.st2{fill:#707070;}
	.st3{fill:#707070;stroke:#000000;stroke-width:5;stroke-linecap:round;stroke-linejoin:round;stroke-miterlimit:10;}
	.st4{fill:none;stroke:#000000;stroke-width:5;stroke-linecap:round;stroke-linejoin:round;stroke-miterlimit:10;}
	.st5{fill:url(#SVGID_2_);}
	.st6{fill:url(#SVGID_3_);}
	.st7{fill:url(#SVGID_4_);}
	.st8{fill:url(#SVGID_5_);}
	.st9{fill:#3E3E3E;stroke:#000000;stroke-width:5;stroke-miterlimit:10;}
	.st10{fill:#707070;stroke:#000000;stroke-width:5;stroke-miterlimit:10;}
	.st11{fill:none;}
	.st12{fill:#0A0909;}
	.st13{fill:#6E6E6E;}
	.st14{fill:none;stroke:#FFFFFF;stroke-width:5;stroke-linecap:round;stroke-linejoin:round;stroke-miterlimit:10;}
	.st15{fill:#3E3E3E;}
	.st16{fill:#3E3E3E;stroke:#020202;stroke-width:5;stroke-linecap:round;stroke-linejoin:round;stroke-miterlimit:10;}
	.st17{fill:#2A2A2A;stroke:#050505;stroke-width:5;stroke-linecap:round;stroke-linejoin:round;stroke-miterlimit:10;}
	.st18{fill:#1C1C1C;stroke:#000000;stroke-width:5;stroke-linecap:round;stroke-linejoin:round;stroke-miterlimit:10;}
	.st19{fill:#2A2A2A;stroke:#020202;stroke-width:5;stroke-linecap:round;stroke-linejoin:round;stroke-miterlimit:10;}
	.st20{fill:#D3A3BD;stroke:#188917;stroke-width:5;stroke-linecap:round;stroke-linejoin:round;stroke-miterlimit:10;}
	.st21{fill:#CB0202;stroke:#020202;stroke-width:5;stroke-linecap:round;stroke-linejoin:round;stroke-miterlimit:10;}
	.st22{fill:#707070;stroke:#000000;stroke-width:5;stroke-linecap:round;stroke-miterlimit:10;}
	.st23{fill:none;stroke:#707070;stroke-width:5;stroke-linecap:round;stroke-miterlimit:10;}
	.st24{fill:#6A0113;}
	.st25{fill:#CB0202;}
	.st26{fill:#2A2A2A;}
	.st27{fill:#707070;stroke:#180017;stroke-width:5;stroke-linecap:round;stroke-linejoin:round;stroke-miterlimit:10;}
	.st28{fill:none;stroke:#180017;stroke-width:5;stroke-linecap:round;stroke-linejoin:round;stroke-miterlimit:10;}
	.st29{fill:#1C1C1C;stroke:#180017;stroke-width:5;stroke-linecap:round;stroke-linejoin:round;stroke-miterlimit:10;}
	.st30{fill:#AE021E;stroke:#180017;stroke-width:5;stroke-linecap:round;stroke-linejoin:round;stroke-miterlimit:10;}
	.st31{fill:#B6B6B6;}
	.st32{fill:#180017;}
	.st33{fill:#3E3E3E;stroke:#000000;stroke-width:5;stroke-linecap:round;stroke-linejoin:round;stroke-miterlimit:10;}
	.st34{fill:#707070;stroke:#050505;stroke-width:5;stroke-linecap:round;stroke-linejoin:round;stroke-miterlimit:10;}
	.st35{fill:#B6B6B6;stroke:#000000;stroke-width:5;stroke-linecap:round;stroke-linejoin:round;stroke-miterlimit:10;}
	.st36{fill:#FFFFFF;stroke:#000000;stroke-width:5;stroke-linecap:round;stroke-linejoin:round;stroke-miterlimit:10;}
	.st37{fill:#181617;stroke:#000000;stroke-width:5;stroke-linecap:round;stroke-linejoin:round;stroke-miterlimit:10;}
	.st38{fill:none;stroke:#FFFFFF;stroke-width:4.6396;stroke-linecap:round;stroke-linejoin:round;stroke-miterlimit:10;}
	.st39{stroke:#000000;stroke-width:4.4811;stroke-linecap:round;stroke-linejoin:round;stroke-miterlimit:10;}
	.st40{stroke:#000000;stroke-width:4.2964;stroke-linecap:round;stroke-linejoin:round;stroke-miterlimit:10;}
	.st41{display:none;}
	.st42{display:inline;fill:none;stroke:#000000;stroke-width:5;stroke-linecap:round;stroke-linejoin:round;stroke-miterlimit:10;}
	.st43{fill:#1C1C1C;}
	.st44{fill:#6A0113;stroke:#000000;stroke-width:5;stroke-linecap:round;stroke-linejoin:round;stroke-miterlimit:10;}
	.st45{fill:#6E6E6E;stroke:#000000;stroke-width:5;stroke-linecap:round;stroke-linejoin:round;stroke-miterlimit:10;}
	.st46{fill:#6F6F6F;stroke:#000000;stroke-width:5;stroke-linecap:round;stroke-linejoin:round;stroke-miterlimit:10;}
	.st47{fill:#AE021E;stroke:#000000;stroke-width:5;stroke-linecap:round;stroke-linejoin:round;stroke-miterlimit:10;}
	.st48{fill:none;stroke:#FFFFFF;stroke-width:4.6842;stroke-linecap:round;stroke-linejoin:round;stroke-miterlimit:10;}
	.st49{fill:#52020F;stroke:#000000;stroke-width:5;stroke-linecap:round;stroke-linejoin:round;stroke-miterlimit:10;}
	.st50{fill:#CB0202;stroke:#000000;stroke-width:5;stroke-linecap:round;stroke-linejoin:round;stroke-miterlimit:10;}
	.st51{fill:#CB0302;stroke:#000000;stroke-width:5;stroke-linecap:round;stroke-linejoin:round;stroke-miterlimit:10;}
	.st52{fill:#FFFFFF;}
	.st53{fill:#AE021E;stroke:#000000;stroke-width:4.4601;stroke-linecap:round;stroke-linejoin:round;stroke-miterlimit:10;}
	.st54{fill:#AE021E;stroke:#FFFFFF;stroke-width:4.4601;stroke-linecap:round;stroke-linejoin:round;stroke-miterlimit:10;}
	.st55{fill:#AE021E;stroke:#FFFFFF;stroke-width:5;stroke-linecap:round;stroke-linejoin:round;stroke-miterlimit:10;}
	.st56{fill:none;stroke:#1C1C1C;stroke-width:2;stroke-linecap:round;stroke-linejoin:round;stroke-miterlimit:10;}
	.st57{fill:#717171;}
	.st58{fill:#191718;}
	.st59{fill:none;stroke:#000000;stroke-width:10;stroke-linecap:round;stroke-linejoin:round;stroke-miterlimit:10;}
	.st60{fill:none;stroke:#000000;stroke-width:8;stroke-linecap:round;stroke-linejoin:round;stroke-miterlimit:10;}
	.st61{fill:#FF0000;stroke:#000000;stroke-width:5;stroke-linecap:round;stroke-linejoin:round;stroke-miterlimit:10;}
	.st62{fill:#1D1D1D;}
	.st63{fill:none;stroke:#FFFFFF;stroke-width:4.4425;stroke-linecap:round;stroke-linejoin:round;stroke-miterlimit:10;}
	.st64{fill:#6B0014;}
	.st65{fill:none;stroke:#FFFFFF;stroke-width:4.6071;stroke-linecap:round;stroke-linejoin:round;stroke-miterlimit:10;}
	.st66{fill:#AF001F;}
	.st67{fill:none;stroke:#FF0000;stroke-width:5;stroke-linecap:round;stroke-linejoin:round;stroke-miterlimit:10;}
	.st68{fill:#020202;stroke:#000000;stroke-width:5;stroke-linecap:round;stroke-linejoin:round;stroke-miterlimit:10;}
	.st69{fill:#AE011E;}
</style>
<g id="демон">
</g>
<g id="ученый">
</g>
<g id="клоун">
</g>
<g id="пила">
	<g id="Слой_6">
		<g>
			<polygon class="st26" points="0,0 1080,0 1080,1080 673.1,670 673.1,401 407.3,401 407.3,670 0,1080 			"/>
			<polygon class="st15" points="0,0 1080,0 673.1,401 407.1,401 			"/>
			<g>
				<g>
					<line class="st56" x1="407.3" y1="401" x2="0" y2="0"/>
					<line class="st56" x1="138.9" y1="0" x2="445" y2="401"/>
					<line class="st56" x1="263.8" y1="0" x2="476.2" y2="401"/>
					<line class="st56" x1="392.7" y1="0" x2="505.4" y2="401"/>
					<line class="st56" x1="0" y1="134.1" x2="407.3" y2="438.2"/>
					<line class="st56" x1="0" y1="259.9" x2="407.3" y2="465.4"/>
					<line class="st56" x1="0" y1="384.8" x2="407.3" y2="496.6"/>
					<line class="st56" x1="0" y1="518.7" x2="407.3" y2="529.8"/>
					<line class="st56" x1="0" y1="652.7" x2="407.3" y2="566.1"/>
					<line class="st56" x1="0" y1="786.6" x2="407.3" y2="600.3"/>
					<line class="st56" x1="0" y1="928.6" x2="407.3" y2="635.6"/>
					<polyline class="st56" points="128.1,951 128.1,125 540,125 					"/>
					<polyline class="st56" points="225.5,851.4 225.5,222.5 540,222.5 					"/>
					<polyline class="st56" points="292,786.1 292,286.1 540,286.1 					"/>
					<polyline class="st56" points="341.8,735.9 341.8,333.5 540,333.5 					"/>
					<polyline class="st56" points="370,707.5 370,362.7 540,362.7 					"/>
					<polyline class="st56" points="392.7,684.7 392.7,384.8 540,384.8 					"/>
				</g>
				<g>
					<line class="st56" x1="1080" y1="0" x2="672.7" y2="401"/>
					<line class="st56" x1="941.1" y1="0" x2="635" y2="401"/>
					<line class="st56" x1="816.2" y1="0" x2="603.8" y2="401"/>
					<line class="st56" x1="687.3" y1="0" x2="574.6" y2="401"/>
					<line class="st56" x1="1080" y1="134.1" x2="672.7" y2="438.2"/>
					<line class="st56" x1="1080" y1="259.9" x2="672.7" y2="465.4"/>
					<line class="st56" x1="1080" y1="384.8" x2="672.7" y2="496.6"/>
					<line class="st56" x1="1080" y1="518.7" x2="672.7" y2="529.8"/>
					<line class="st56" x1="1080" y1="652.7" x2="672.7" y2="566.1"/>
					<line class="st56" x1="1080" y1="786.6" x2="672.7" y2="600.3"/>
					<line class="st56" x1="1080" y1="928.6" x2="672.7" y2="635.6"/>
					<polyline class="st56" points="951.9,951 951.9,125 540,125 					"/>
					<polyline class="st56" points="854.5,851.4 854.5,222.5 540,222.5 					"/>
					<polyline class="st56" points="788,786.1 788,286.1 540,286.1 					"/>
					<polyline class="st56" points="738.2,735.9 738.2,333.5 540,333.5 					"/>
					<polyline class="st56" points="710,707.5 710,362.7 540,362.7 					"/>
					<polyline class="st56" points="687.3,684.7 687.3,384.8 540,384.8 					"/>
				</g>
				<line class="st56" x1="540" y1="401" x2="540" y2="0"/>
			</g>
			<polygon class="st49" points="0,1080 1080,1080 673.1,670 673.1,401 407.3,401 407.3,670 			"/>
			<line class="st4" x1="407.3" y1="670" x2="673.1" y2="670"/>
		</g>
	</g>
	<g>
		<g>
			<g>
				<g>
					<polygon class="st57" points="920.1,317.9 920.1,590.3 961.4,598 956.2,577.4 963.1,558.5 953.3,539.2 963.8,521.6 
						953.3,505.5 963.8,487 952,469.6 963.1,449.8 951,429.3 963.1,409.5 950,389.7 963.8,369.9 949.7,347.7 963.8,325.9 952,314.2 
											"/>
					<polygon class="st4" points="920.1,317.9 920.1,590.3 961.4,598 956.2,577.4 963.1,558.5 953.3,539.2 963.8,521.6 953.3,505.5 
						963.8,487 952,469.6 963.1,449.8 951,429.3 963.1,409.5 950,389.7 963.8,369.9 949.7,347.7 963.8,325.9 952,314.2 					"/>
				</g>
				<g>
					<path class="st58" d="M930.6,558.5v94.4c0,0-16.8-4.1-19.6,1c-3.5,6.4-4.9,23.9,2.2,25.6c6.2,1.5,15.5-11.4,21.8-10.6
						c6.9,0.9,6.5,27,13.5,27.1c6.6,0.1,18.2-16.7,16.9-23.1C964.4,668,947,659,947,659V561L930.6,558.5z"/>
					<path class="st4" d="M930.6,558.5v94.4c0,0-16.8-4.1-19.6,1c-3.5,6.4-4.9,23.9,2.2,25.6c6.2,1.5,15.5-11.4,21.8-10.6
						c6.9,0.9,6.5,27,13.5,27.1c6.6,0.1,18.2-16.7,16.9-23.1C964.4,668,947,659,947,659V561L930.6,558.5z"/>
				</g>
				<g>
					<polygon class="st57" points="848.8,577.4 955.3,631 955.3,659 847.8,598.7 					"/>
					<polygon class="st4" points="848.8,577.4 955.3,631 955.3,659 847.8,598.7 					"/>
				</g>
				<g>
					<polygon class="st58" points="925.8,278.9 925.8,330.3 941.6,330.3 941.6,271.9 					"/>
					<polygon class="st4" points="925.8,278.9 925.8,330.3 941.6,330.3 941.6,271.9 					"/>
				</g>
				<g>
					<path class="st57" d="M943.2,255.4c0,0-81.1,25.2-96.9,82.9c-19.1,69.9-10.3,129-10.3,297h19.6v-32.5c0,0,17.6,3.3,20.1-1.6
						c3.5-6.7-16.8-17.4-17.4-24.9c-5.4-66.1-10.1-179.1,9.1-231.5c15.1-41.4,75.8-57.7,75.8-57.7V255.4z"/>
					<path class="st4" d="M943.2,255.4c0,0-81.1,25.2-96.9,82.9c-19.1,69.9-10.3,129-10.3,297h19.6v-32.5c0,0,17.6,3.3,20.1-1.6
						c3.5-6.7-16.8-17.4-17.4-24.9c-5.4-66.1-10.1-179.1,9.1-231.5c15.1-41.4,75.8-57.7,75.8-57.7V255.4z"/>
				</g>
				<path class="st14" d="M842.9,480.5c0,3.6,0.1,7.3,0.2,11.1"/>
				<path class="st14" d="M842.8,449.6c0,6.3,0,12.8,0,19.6"/>
				<path class="st14" d="M853.1,345.9c-7.3,29.4-9.8,57.6-10.3,93.8"/>
				<path class="st59" d="M923.1,304.3c-48.6,15.6-66.7-20.1-66.7-20.1l-5.4,3.7l-9.4,6.4l19.6-26.7l-10.2,18.4"/>
				<line class="st28" x1="904.4" y1="630.4" x2="904.4" y2="605.4"/>
				<line class="st60" x1="916.1" y1="623.4" x2="919.7" y2="625.6"/>
				<line class="st60" x1="857.5" y1="591.9" x2="861.2" y2="594.1"/>
				<line class="st60" x1="842.8" y1="557.5" x2="846.4" y2="559.6"/>
				<line class="st60" x1="842.8" y1="534.7" x2="846.4" y2="536.8"/>
				<line class="st60" x1="842.8" y1="516.4" x2="846.4" y2="518.6"/>
				<line class="st60" x1="908.6" y1="283.4" x2="912.2" y2="285.5"/>
				<line class="st60" x1="927.5" y1="275.5" x2="931.2" y2="277.6"/>
				<line class="st28" x1="835.1" y1="544.1" x2="856.4" y2="549.8"/>
				<g>
					<path class="st58" d="M830.2,601.8c3.4-8.7,25.8,2.6,31.5,10c6.8,8.9,3.3,38,8.1,48.1c12,25.1,49.7,48,73.4,81.9
						c23.1,33,8.2,38.2-3.5,40.7c-33.5,7.1-67.9-81-90.7-103.8c-4-4-20.1-12.1-20.1-12.1S826.8,610.6,830.2,601.8z"/>
					<path class="st4" d="M830.2,601.8c3.4-8.7,25.8,2.6,31.5,10c6.8,8.9,3.3,38,8.1,48.1c12,25.1,49.7,48,73.4,81.9
						c23.1,33,8.2,38.2-3.5,40.7c-33.5,7.1-67.9-81-90.7-103.8c-4-4-20.1-12.1-20.1-12.1S826.8,610.6,830.2,601.8z"/>
				</g>
				<path class="st14" d="M918.7,755.7c-21.7-25.7-42-69.6-57.1-84.8"/>
				<path class="st14" d="M938.8,772.8c-4.1-1.9-8.1-4.8-12.1-8.6"/>
				<path class="st14" d="M841.4,654.3c0,0-0.9-22.3-0.4-41.7"/>
			</g>
			<line class="st14" x1="847.6" y1="289.2" x2="855.2" y2="275.5"/>
			<line class="st14" x1="843.6" y1="591.9" x2="843.6" y2="570.4"/>
			<line class="st14" x1="926.8" y1="366.4" x2="952.5" y2="366.4"/>
			<line class="st14" x1="926.8" y1="376.3" x2="950.5" y2="376.3"/>
			<line class="st14" x1="926.8" y1="387.3" x2="943.2" y2="387.3"/>
			<line class="st14" x1="926.8" y1="398.4" x2="947.3" y2="398.4"/>
			<line class="st14" x1="926.8" y1="408.2" x2="952.5" y2="408.2"/>
			<line class="st14" x1="926.8" y1="418" x2="949.2" y2="418"/>
			<line class="st14" x1="926.8" y1="427.9" x2="944" y2="427.9"/>
			<line class="st14" x1="936.8" y1="605.4" x2="936.8" y2="567.3"/>
			<line class="st14" x1="951.5" y1="687.2" x2="941.9" y2="665.8"/>
		</g>
		<g>
			<line class="st14" x1="429.6" y1="770.8" x2="441.5" y2="701.7"/>
			<g>
				<g>
					<g>
						<path class="st61" d="M541.1,867.4H379.6v-12.8h161.5V867.4z M541.7,867.4h161.5v-12.8H541.7V867.4z"/>
						<g>
							<g>
								<path class="st57" d="M541.1,683c0,0-68.1-2.7-85.9-15.8c-15.8-11.6-14.8-77.2-14.8-77.2l52.4-56.7l48.3,2.9 M541.1,683
									c0,0,68.1-2.7,85.9-15.8c15.8-11.6,14.8-77.2,14.8-77.2l-52.4-56.7l-48.3,2.9"/>
							</g>
							<g>
								<path class="st4" d="M541.1,683c0,0-68.1-2.7-85.9-15.8c-15.8-11.6-14.8-77.2-14.8-77.2l52.4-56.7l48.3,2.9 M541.1,683
									c0,0,68.1-2.7,85.9-15.8c15.8-11.6,14.8-77.2,14.8-77.2l-52.4-56.7l-48.3,2.9"/>
							</g>
						</g>
						<g>
							<g>
								<path class="st57" d="M502.9,652.2l6,8l32.4,2.5 M572,664.2l9.2-8.2l-40.1,6.9"/>
							</g>
							<g>
								<path class="st4" d="M502.9,652.2l6,8l32.4,2.5 M572,664.2l9.2-8.2l-40.1,6.9"/>
							</g>
						</g>
						<g>
							<path class="st52" d="M674.8,660.6c11.7,7,24-7.4,24-7.4c30.1,10.8,40.8-71.7,4.5-68c0,0-15.9-19.4-26.2,0
								c0,0-13.1-15.1-25.4,1.3c0,0-29.2-32.2-57.1,37.8c-5.2,12.9,0,45.4,34.5,55.4c15.6,4.5,27.3,8.9,43.4,7.8
								C690.8,686.2,686.7,666.2,674.8,660.6L674.8,660.6z"/>
							<path class="st4" d="M674.8,660.6c11.7,7,24-7.4,24-7.4c30.1,10.8,40.8-71.7,4.5-68c0,0-15.9-19.4-26.2,0
								c0,0-13.1-15.1-25.4,1.3c0,0-29.2-32.2-57.1,37.8c-5.2,12.9,0,45.4,34.5,55.4c15.6,4.5,27.3,8.9,43.4,7.8
								C690.8,686.2,686.7,666.2,674.8,660.6L674.8,660.6z"/>
						</g>
						<g>
							<path class="st52" d="M408,660.6c-11.7,7-24-7.4-24-7.4c-30.1,10.8-40.8-71.7-4.5-68c0,0,15.9-19.4,26.2,0
								c0,0,13.1-15.1,25.4,1.3c0,0,29.2-32.2,57.1,37.8c5.2,12.9,0,45.4-34.5,55.4c-15.6,4.5-27.3,8.9-43.4,7.8
								C392,686.2,396.2,666.2,408,660.6L408,660.6z"/>
							<path class="st4" d="M408,660.6c-11.7,7-24-7.4-24-7.4c-30.1,10.8-40.8-71.7-4.5-68c0,0,15.9-19.4,26.2,0
								c0,0,13.1-15.1,25.4,1.3c0,0,29.2-32.2,57.1,37.8c5.2,12.9,0,45.4-34.5,55.4c-15.6,4.5-27.3,8.9-43.4,7.8
								C392,686.2,396.2,666.2,408,660.6L408,660.6z"/>
						</g>
						<g>
							<g>
								<path class="st62" d="M403.3,854.6c14.7,29.2,25.9,44.8,10.9,54.8c-12.5,8.3-27.3-11.3-43.5-39.7
									c-16.7-29.2-24.4-46.8-8.8-55.4C370.7,809.5,384.6,817.5,403.3,854.6z M679.5,854.6c-14.7,29.2-25.9,44.8-10.9,54.8
									c12.5,8.3,27.3-11.3,43.5-39.7c16.7-29.2,24.4-46.8,8.8-55.4C712.1,809.5,698.2,817.5,679.5,854.6z"/>
							</g>
							<g>
								<path class="st4" d="M403.3,854.6c14.7,29.2,25.9,44.8,10.9,54.8c-12.5,8.3-27.3-11.3-43.5-39.7
									c-16.7-29.2-24.4-46.8-8.8-55.4C370.7,809.5,384.6,817.5,403.3,854.6z M679.5,854.6c-14.7,29.2-25.9,44.8-10.9,54.8
									c12.5,8.3,27.3-11.3,43.5-39.7c16.7-29.2,24.4-46.8,8.8-55.4C712.1,809.5,698.2,817.5,679.5,854.6z"/>
							</g>
						</g>
						<g>
							<path class="st63" d="M362.8,834.9c-2.2-7.4-2-11.5,3.8-14 M716.1,822.7c-6,1.3-9.9,5.5-17.1,16.2"/>
						</g>
						<g>
							<g>
								<path class="st57" d="M541.1,674.6v29.2c0,0-60.2,8.8-60.2,13.6c0,53-12.3,108.8-12.3,108.8L452.8,838
									c0,0-57.4-19.5-53.8-37.4c3.7-18.3,20-20,20-20c4.1-18,7-74.8,18.8-96.3c4.2-7.6,27.3-21.5,27.3-21.5L541.1,674.6z
									 M457.1,790c-14.7-11.6-38.1-9.4-38.1-9.4 M436.4,687c0,0,11.5,8.3,37.7,8.3 M541.1,703.8c0,0,44.8,6,68.5,0l1.3,49.1
									l77.3-42.3l-18.8-31.5l-19.6-6.5l-108.6,2V703.8z"/>
							</g>
							<g>
								<path class="st4" d="M541.1,674.6v29.2c0,0-60.2,8.8-60.2,13.6c0,53-12.3,108.8-12.3,108.8L452.8,838
									c0,0-57.4-19.5-53.8-37.4c3.7-18.3,20-20,20-20c4.1-18,7-74.8,18.8-96.3c4.2-7.6,27.3-21.5,27.3-21.5L541.1,674.6z
									 M457.1,790c-14.7-11.6-38.1-9.4-38.1-9.4 M436.4,687c0,0,11.5,8.3,37.7,8.3 M541.1,703.8c0,0,44.8,6,68.5,0l1.3,49.1
									l77.3-42.3l-18.8-31.5l-19.6-6.5l-108.6,2V703.8z"/>
							</g>
						</g>
						<path class="st61" d="M541.4,816.5v24l-46.4-4.7l0.8-12.3l30.8-7H541.4z M541.4,816.5v24l46.4-4.7l-0.8-12.3l-30.8-7H541.4z"
							/>
						<path class="st61" d="M373.9,835.2c0,0,2.4-43.2,42.2-38.6c35.3,4,35.5,38.1,35.5,38.1c-1.3,19.7-10.5,33.6-10.5,33.6
							l-45.3,2.3L373.9,835.2z"/>
						<path class="st14" d="M429.6,809.7c3.9,2.4,6.9,5.4,9.1,8.7"/>
						<path class="st14" d="M390.9,812.4c5.3-5.3,13-8.8,24.4-7.4c2.7,0.3,5.1,0.9,7.3,1.6"/>
						<path class="st61" d="M708.5,738.6c0.3-1.2-2.9-44.5-43.1-37.8c-35.1,5.9-44.3,51.9-44.3,51.9c1.3,19.7,8.6,36.8,8.6,36.8
							l57.2,4.1L708.5,738.6z"/>
						<path class="st14" d="M680.9,708.4c-4.1-1.3-9.1-1.7-15-0.6c-4.8,0.8-9,2.6-12.6,5"/>
						<g>
							<path class="st64" d="M395.9,876.3c-8.7-3-23.3-22.2-24.8-31.3c-0.9-5.5-1.3-11.9,5.3-17.7c7.5-6.6,41.6-6.2,51.3-1.7
								c9.5,4.4,19.1,32.5,15,42C437.7,879.3,408,880.4,395.9,876.3z"/>
							<path class="st4" d="M395.9,876.3c-8.7-3-23.3-22.2-24.8-31.3c-0.9-5.5-1.3-11.9,5.3-17.7c7.5-6.6,41.6-6.2,51.3-1.7
								c9.5,4.4,19.1,32.5,15,42C437.7,879.3,408,880.4,395.9,876.3z"/>
						</g>
						<g>
							<polygon class="st52" points="489.9,532.5 541.4,647.7 594.6,530.6 							"/>
							<polygon class="st4" points="489.9,532.5 541.4,647.7 594.6,530.6 							"/>
						</g>
						<g>
							<g>
								<path d="M541.1,505.7L541.1,505.7c0,0-99.4,8.7-131.9,3.3c-62.4-10.3-68.5-60.7-68.5-60.7c-86.3-32.1-11.8-86.4-11.8-86.4
									s-95.6-84,52.4-153.8c0,0,69.7-82.2,160.1-33.7l0,0 M541.7,505.7L541.7,505.7c0,0,99.4,8.7,131.9,3.3
									c62.4-10.3,68.5-60.7,68.5-60.7c86.3-32.1,11.8-86.4,11.8-86.4s95.6-84-52.4-153.8c0,0-69.7-82.2-160.1-33.7l0,0"/>
							</g>
							<g>
								<path class="st4" d="M541.1,505.7L541.1,505.7c0,0-99.4,8.7-131.9,3.3c-62.4-10.3-68.5-60.7-68.5-60.7
									c-86.3-32.1-11.8-86.4-11.8-86.4s-95.6-84,52.4-153.8c0,0,69.7-82.2,160.1-33.7l0,0 M541.7,505.7L541.7,505.7
									c0,0,99.4,8.7,131.9,3.3c62.4-10.3,68.5-60.7,68.5-60.7c86.3-32.1,11.8-86.4,11.8-86.4s95.6-84-52.4-153.8
									c0,0-69.7-82.2-160.1-33.7l0,0"/>
							</g>
						</g>
						<g>
							<path class="st65" d="M483.8,170.2c6.3-0.3,12.9,0,19.6,0.9 M409.5,201.6c12.8-10.7,33.3-24.4,58.9-29.5 M362.2,234.1
								c3.9-2.7,8.1-5.4,12.7-8 M331.1,338.4c-13.4-21.4-24.3-57.6,17.6-93.9 M335.5,322.4c-4.9-14-6.2-31.1,3-49.1 M335.5,322.4
								 M339.3,331.4 M344.3,431.8c-45.2-13.2-32.3-34.9-19.7-50.7 M346.5,415.9c-16.6-5.9-18-16.5-8.8-25.8 M628.7,175.6
								c-16.7-5.5-36.1-7.8-57.4-2.8 M659.4,190.6c-4.2-2.7-8.7-5.4-13.6-7.8 M678.2,204.9c-2.3-2-4.9-4.3-7.9-6.6 M763.5,311.6
								c4.3-22.7-2.8-51-43.5-78.5 M751.1,308.2c0.9-13.1-2.4-27.6-13.5-42.6 M754,336.2c2.1-3.5,4-7.3,5.7-11.5 M744.6,437.1
								c36.8-17.9,32.3-36.8,18.3-50.8 M750.5,416.2c7.4-3.7,9.1-10.2,4.9-14.4"/>
						</g>
						<g>
							<g>
								<path class="st57" d="M541.1,639.1l-48.3-105.7l-17.5,40.3l23.3,16.4l-10.7,21.5l53.2,44.6L541.1,639.1z M541.1,656.2
									l53.2-44.6l-10.7-21.5l23.3-16.4l-17.5-40.3l-48.3,105.7L541.1,656.2z"/>
							</g>
							<g>
								<path class="st4" d="M541.1,639.1l-48.3-105.7l-17.5,40.3l23.3,16.4l-10.7,21.5l53.2,44.6L541.1,639.1z M541.1,656.2
									l53.2-44.6l-10.7-21.5l23.3-16.4l-17.5-40.3l-48.3,105.7L541.1,656.2z"/>
							</g>
						</g>
						<g>
							<path class="st64" d="M628.4,787.8c0,0-7.4-20.2-6.3-27.6c1.7-11.1,17.1-33.9,27.5-38.1c13.5-5.4,50.8-4.3,57.7,8.5
								c8.8,16.3-8.1,62.4-25.1,69.7C669,805.9,628.4,787.8,628.4,787.8z"/>
							<path class="st4" d="M628.4,787.8c0,0-7.4-20.2-6.3-27.6c1.7-11.1,17.1-33.9,27.5-38.1c13.5-5.4,50.8-4.3,57.7,8.5
								c8.8,16.3-8.1,62.4-25.1,69.7C669,805.9,628.4,787.8,628.4,787.8z"/>
						</g>
						<path class="st61" d="M541.4,577.2l-63.9,19l-5.6-68.1l69.5,35.9 M488.2,570.1l53.2,4.7 M541.4,563.9l69.5-35.9l-5.6,68.1
							l-63.9-19 M541.4,574.9l53.2-4.7"/>
						<g>
							<g>
								<path class="st52" d="M541.4,184.2L541.4,184.2c55.7,0,122.2,8.3,166.5,66.2c17.9,23.4,27.7,67.5,15.9,109
									c-7.1,24.9-39,95.9-39,95.9c17.6,60.6-25.8,84.8-74.7,83.5l-68.6,34.6l0,0 M541.4,184.2L541.4,184.2
									c-55.7,0-122.2,8.3-166.5,66.2c-17.9,23.4-27.7,67.5-15.9,109c7.1,24.9,39,95.9,39,95.9c-17.6,60.6,25.8,84.8,74.7,83.5
									l68.6,34.6l0,0"/>
							</g>
							<g>
								<path class="st4" d="M541.4,184.2L541.4,184.2c55.7,0,122.2,8.3,166.5,66.2c17.9,23.4,27.7,67.5,15.9,109
									c-7.1,24.9-39,95.9-39,95.9c17.6,60.6-25.8,84.8-74.7,83.5l-68.6,34.6l0,0 M541.4,184.2L541.4,184.2
									c-55.7,0-122.2,8.3-166.5,66.2c-17.9,23.4-27.7,67.5-15.9,109c7.1,24.9,39,95.9,39,95.9c-17.6,60.6,25.8,84.8,74.7,83.5
									l68.6,34.6l0,0"/>
							</g>
						</g>
						<g>
							<path class="st66" d="M424.3,617c0,0,44.7,3.9,49.3,5.7c5.9,2.4,4.5,21,0,25.5c-4,4-48.3,0-48.3,0L424.3,617z"/>
							<path class="st4" d="M424.3,617c0,0,44.7,3.9,49.3,5.7c5.9,2.4,4.5,21,0,25.5c-4,4-48.3,0-48.3,0L424.3,617z"/>
						</g>
						<g>
							<path d="M680.6,803.6c8.7-3.6,23.3-26.7,24.8-37.7c0.9-6.6,1.3-14.3-5.3-21.3c-7.5-8-41.6-7.5-51.3-2.1
								c-9.5,5.3-24.4,33.7-20.3,45.2C633.5,801.9,668.5,808.6,680.6,803.6z"/>
							<path class="st4" d="M680.6,803.6c8.7-3.6,23.3-26.7,24.8-37.7c0.9-6.6,1.3-14.3-5.3-21.3c-7.5-8-41.6-7.5-51.3-2.1
								c-9.5,5.3-24.4,33.7-20.3,45.2C633.5,801.9,668.5,808.6,680.6,803.6z"/>
						</g>
						<g>
							<polygon class="st64" points="434.7,840.5 442.1,870.5 436.5,883 386.6,883 375.6,855.3 381.8,840.5 							"/>
							<polygon class="st4" points="434.7,840.5 442.1,870.5 436.5,883 386.6,883 375.6,855.3 381.8,840.5 							"/>
						</g>
						<polyline class="st4" points="436.5,883 428.5,854.6 375.6,855.3 						"/>
						<line class="st4" x1="428.5" y1="854.6" x2="434.7" y2="840.5"/>
						<g>
							<polygon class="st64" points="643.4,768.3 636,798.3 641.6,810.8 691.6,810.8 702.6,783.1 696.3,768.3 							"/>
							<polygon class="st4" points="643.4,768.3 636,798.3 641.6,810.8 691.6,810.8 702.6,783.1 696.3,768.3 							"/>
						</g>
						<polyline class="st4" points="702.6,783.1 649.7,782.5 641.6,810.8 						"/>
						<line class="st4" x1="649.7" y1="782.5" x2="643.4" y2="768.3"/>
						<g>
							<g>
								<path class="st66" d="M434.7,860.8c9.7,1.4,14.3-2.9,15.6-16.5c1.9-19.8,20.5-19,33.5-18.2c1.8,0.1,0,7.3,0,7.3
									c-12.7,1.9-23.8-6-27.2,18.7c-2,14.4-15.1,15.8-21.1,15.2C433.8,867.2,433.1,860.5,434.7,860.8z M641.8,790.1
									c-6-0.6-19.2,0.9-21.1,15.2c-3.4,24.7-14.5,16.8-27.2,18.7c0,0-1.8,7.2,0,7.3c13,0.8,31.6,1.7,33.5-18.2
									c1.3-13.7,6-18,15.6-16.5C644.2,796.9,643.4,790.3,641.8,790.1z"/>
							</g>
							<g>
								<path class="st4" d="M434.7,860.8c9.7,1.4,14.3-2.9,15.6-16.5c1.9-19.8,20.5-19,33.5-18.2c1.8,0.1,0,7.3,0,7.3
									c-12.7,1.9-23.8-6-27.2,18.7c-2,14.4-15.1,15.8-21.1,15.2C433.8,867.2,433.1,860.5,434.7,860.8z M641.8,790.1
									c-6-0.6-19.2,0.9-21.1,15.2c-3.4,24.7-14.5,16.8-27.2,18.7c0,0-1.8,7.2,0,7.3c13,0.8,31.6,1.7,33.5-18.2
									c1.3-13.7,6-18,15.6-16.5C644.2,796.9,643.4,790.3,641.8,790.1z"/>
							</g>
						</g>
						<g>
							<path class="st67" d="M395.3,467.2c42-22.6,111.3,21.1,66.7,71.5"/>
							<path class="st67" d="M394,482.7c34.9-18.8,91.6,12.6,54.5,54.5"/>
							<path class="st67" d="M396.2,495.7c25-13.5,66.4,8.5,39.7,38.6"/>
							<path class="st67" d="M400,506.8c14.5-7.8,38.9,4.9,23.4,22.3"/>
							<path class="st67" d="M415.8,515.1c0,0,1.1,5.2-2.2,7.8"/>
						</g>
						<g>
							<path class="st66" d="M658.5,617c0,0-44.7,3.9-49.3,5.7c-5.9,2.4-4.5,21,0,25.5c4,4,48.3,0,48.3,0L658.5,617z"/>
							<path class="st4" d="M658.5,617c0,0-44.7,3.9-49.3,5.7c-5.9,2.4-4.5,21,0,25.5c4,4,48.3,0,48.3,0L658.5,617z"/>
						</g>
						<g>
							<path class="st52" d="M380.6,601.7c-8.9,30.6,3.4,51.5,3.4,51.5"/>
							<path class="st4" d="M380.6,601.7c-8.9,30.6,3.4,51.5,3.4,51.5"/>
						</g>
						<g>
							<path class="st52" d="M401.1,603.1c-12.1,46.9,7.7,70.6,28.4,56.4"/>
							<path class="st4" d="M401.1,603.1c-12.1,46.9,7.7,70.6,28.4,56.4"/>
						</g>
						<g>
							<path class="st52" d="M698.8,653.2c0,0,12.3-20.9,3.4-51.5"/>
							<path class="st4" d="M698.8,653.2c0,0,12.3-20.9,3.4-51.5"/>
						</g>
						<g>
							<path class="st52" d="M653.3,659.5c20.7,14.2,40.5-9.5,28.4-56.4"/>
							<path class="st4" d="M653.3,659.5c20.7,14.2,40.5-9.5,28.4-56.4"/>
						</g>
						<g>
							<path class="st52" d="M631.9,615.6c0,0,9.8,6.2,3.4,19.5c-3.7,7.6-4.2,6.9-6.8,12.2c-2.9,5.9-0.2,10.4,2.1,13.4
								c2.6,3.4,13.7,8,22.7-1.1c10.7-10.9,13.2-47.3,3.4-60"/>
							<path class="st4" d="M631.9,615.6c0,0,9.8,6.2,3.4,19.5c-3.7,7.6-4.2,6.9-6.8,12.2c-2.9,5.9-0.2,10.4,2.1,13.4
								c2.6,3.4,13.7,8,22.7-1.1c10.7-10.9,13.2-47.3,3.4-60"/>
						</g>
						<g>
							<path class="st67" d="M687.5,467.2c-42-22.6-111.3,21.1-66.7,71.5"/>
							<path class="st67" d="M688.8,482.7c-34.9-18.8-91.6,12.6-54.5,54.5"/>
							<path class="st67" d="M686.6,495.7c-25-13.5-66.4,8.5-39.7,38.6"/>
							<path class="st67" d="M682.8,506.8c-14.5-7.8-38.9,4.9-23.4,22.3"/>
							<path class="st67" d="M667,515.1c0,0-1.1,5.2,2.2,7.8"/>
						</g>
						<path class="st4" d="M471.3,707.8c2.9,8.1,9.6,9.7,9.6,9.7s-6.4,4.4-18,3.7 M622,684.7c0,5.7-12.5,19.1-12.5,19.1l16.6-5.4"/>
						<g>
							<g>
								<path class="st58" d="M541.4,920.9c-18.8,0-23.2-19.7-24.2-93.8c-1-74.5,5.5-88.6,24.2-88.6 M541.4,920.9
									c18.8,0,23.2-19.7,24.2-93.8c1-74.5-5.5-88.6-24.2-88.6"/>
							</g>
							<g>
								<path class="st4" d="M541.4,920.9c-18.8,0-23.2-19.7-24.2-93.8c-1-74.5,5.5-88.6,24.2-88.6 M541.4,920.9
									c18.8,0,23.2-19.7,24.2-93.8c1-74.5-5.5-88.6-24.2-88.6"/>
							</g>
						</g>
						<g>
							<path class="st14" d="M532.9,752.9c2.5-2.6,5.3-3.6,8.5-3.6 M550,752.9c-2.5-2.6-5.3-3.6-8.5-3.6"/>
						</g>
						<path class="st61" d="M541.4,720.7c-55.6-3.5-36.6,117-45,118.2c0,0-11.4,0.8-13.9-0.9c-4.3-3,1.6-84.9,8.5-110
							c5.8-21,21.3-19.8,32.7-29c12-9.6,8.9-47.2,2.7-50.9c-8.2-4.8-60.6-4-60.6-4v-16.4l75.5,3 M541.4,720.7
							c55.6-3.5,36.6,117,45,118.2c0,0,11.4,0.8,13.9-0.9c4.3-3-1.6-84.9-8.5-110c-5.8-21-21.3-19.8-32.7-29
							c-12-9.6-8.9-47.2-2.7-50.9c8.2-4.8,60.6-4,60.6-4v-16.4l-75.5,3"/>
						<path class="st61" d="M417.8,453.2c-5.8-7.6-9-17-8.2-27c0.6-7.9,3.1-14.5,7.7-20.5c46.4-0.2,64.3,5.8,80.8,8.8
							c2.7,5.9,3.1,11.6,3.2,18.3c0.1,17.4-15.4,28.5-15.4,28.5C453.5,450.3,417.8,453.2,417.8,453.2z M665.6,453.2
							c5.8-7.6,9-17,8.2-27c-0.6-7.9-3.1-14.5-7.7-20.5c-46.4-0.2-64.3,5.8-80.8,8.8c-2.7,5.9-3.1,11.6-3.2,18.3
							c-0.1,17.4,15.4,28.5,15.4,28.5C629.9,450.3,665.6,453.2,665.6,453.2z"/>
						<path class="st68" d="M480.2,432.4c-0.9,12.9-13.9,22.5-29,21.4c-15.1-1.1-26.5-12.4-25.6-25.4c0.9-12.9,13.9-22.5,29-21.4
							C469.7,408.1,481.1,419.5,480.2,432.4z M603.2,432.4c0.9,12.9,13.9,22.5,29,21.4s26.5-12.4,25.6-25.4
							c-0.9-12.9-13.9-22.5-29-21.4S602.3,419.5,603.2,432.4z"/>
						<g>
							<g>
								<path class="st52" d="M541.4,520.8c0,0-25.1,0.5-30-7.1c-8.6-13.1,11.9-99.7,30-96.8 M541.4,520.8c0,0,25.1,0.5,30-7.1
									c8.6-13.1-11.9-99.7-30-96.8"/>
							</g>
							<g>
								<path class="st4" d="M541.4,520.8c0,0-25.1,0.5-30-7.1c-8.6-13.1,11.9-99.7,30-96.8 M541.4,520.8c0,0,25.1,0.5,30-7.1
									c8.6-13.1-11.9-99.7-30-96.8"/>
							</g>
						</g>
						<path class="st36" d="M426.2,599.5c-9.8,12.7-7.3,49.1,3.4,60c8.9,9.1,20.1,4.5,22.7,1.1c2.3-3,5-7.4,2.1-13.4
							c-2.6-5.2-3.1-4.6-6.8-12.2c-6.4-13.3,3.4-19.5,3.4-19.5"/>
						<g>
							<g>
								<path class="st69" d="M541.4,589.8c-15.7,0.3-19.3-16-14.7-23.7c1.9-3.1,14.6,0,14.6,0 M541.4,589.8
									c15.7,0.3,19.3-16,14.7-23.7c-1.9-3.1-14.6,0-14.6,0"/>
							</g>
							<g>
								<path class="st4" d="M541.4,589.8c-15.7,0.3-19.3-16-14.7-23.7c1.9-3.1,14.6,0,14.6,0 M541.4,589.8
									c15.7,0.3,19.3-16,14.7-23.7c-1.9-3.1-14.6,0-14.6,0"/>
							</g>
						</g>
						<g>
							<g>
								<path class="st52" d="M541.4,574.9c0,0-18.2,0-20.5-11.8c-0.9-4.8,0-21.6,0-21.6l20.5,1 M541.4,574.9c0,0,18.2,0,20.5-11.8
									c0.9-4.8,0-21.6,0-21.6l-20.5,1"/>
							</g>
							<g>
								<path class="st4" d="M541.4,574.9c0,0-18.2,0-20.5-11.8c-0.9-4.8,0-21.6,0-21.6l20.5,1 M541.4,574.9c0,0,18.2,0,20.5-11.8
									c0.9-4.8,0-21.6,0-21.6l-20.5,1"/>
							</g>
						</g>
						<path class="st61" d="M541.4,545.8c-12.5,0.4-25.7-6.9-25.7-6.9l0,0c0,0,14.1-10.1,19.6-10c2.9,0,6.2,3.6,6.2,3.6
							 M515.7,538.9l-9.8-5.9 M541.4,532.5c0,0,3.3-3.5,6.2-3.6c5.5-0.1,19.6,10,19.6,10l0,0c0,0-13.2,7.3-25.7,6.9 M577,533.1
							l-9.8,5.9"/>
						<path class="st4" d="M398.1,455.3c0,0,45.3-8.6,87.7,6"/>
						<path class="st4" d="M684.7,455.3c0,0-45.3-8.6-87.7,6"/>
						<path class="st4" d="M521.2,376.5c0,0,10.6,36.5-1.8,39c-20.9,4.3-48.7-14.3-115.8-8.8c-22.9,1.9-30.9-40.1-25.2-53.6
							c5-11.8,9.8-11.8,9.8-11.8"/>
						<path class="st4" d="M508,364.5c-33.3-16.3-48.5-18.6-48.5-18.6"/>
						<path class="st4" d="M561.6,376.5c0,0-10.6,36.5,1.8,39c20.9,4.3,48.7-14.3,115.8-8.8c22.9,1.9,30.9-40.1,25.2-53.6
							c-5-11.8-9.8-11.8-9.8-11.8"/>
						<path class="st4" d="M623.3,345.9c0,0-15.2,2.3-48.5,18.6"/>
					</g>
					<path class="st14" d="M337.7,347.9c2.8,0.6,7.1,4.7,6.5,8.5c-0.9,5.5-5.2,7.7-6.3,8.4"/>
				</g>
				<g>
					<circle class="st52" cx="427.7" cy="422.8" r="11.3"/>
					<circle class="st52" cx="448.2" cy="415.9" r="7.2"/>
				</g>
				<g>
					<circle class="st52" cx="602.7" cy="425.2" r="11.3"/>
					<circle class="st52" cx="623.2" cy="418.3" r="7.2"/>
				</g>
				<path class="st14" d="M429.6,770.8c0,0,6.8-52,11.9-70.5"/>
			</g>
			<path class="st65" d="M512.2,636.3c0,0,30.1,3.3,57.9,0"/>
			<line class="st65" x1="541.4" y1="647.7" x2="541.1" y2="701.7"/>
			<path class="st65" d="M519.2,712.8c0,0,10.5-5,21.9-5c13.7,0,20.1,5,20.1,5"/>
		</g>
	</g>
</g>
<g id="шестерка_лупа">
	<g id="Слой_10">
	</g>
</g>
<g id="шестерка_микрофон">
</g>
<g id="шестерка_радость">
</g>
<g id="шестерка_радость_2">
</g>
</svg>
